<?xml version="1.0" standalone="no"?>
<!DOCTYPE svg PUBLIC "-//W3C//DTD SVG 1.1//EN" "http://www.w3.org/Graphics/SVG/1.1/DTD/svg11.dtd" >
<svg xmlns="http://www.w3.org/2000/svg">
<metadata></metadata>
<defs>
<font id="heuristicaitalic" horiz-adv-x="1085" >
<font-face units-per-em="2048" ascent="1536" descent="-512" />
<missing-glyph horiz-adv-x="460" />
<glyph unicode="&#xfb01;" horiz-adv-x="1243" d="M-147 -381q0 43 28.5 75t57.5 32q31 0 61 -45q66 -100 109 -101q39 0 65 139l238 1207h-183l23 78h178l23 75q61 207 170.5 324t320.5 117q156 0 243 -67t91 -144q2 -47 -34 -75t-81 -28t-59 49q-51 193 -186 193q-109 0 -170.5 -94t-112.5 -297l-14 -53h223 q150 0 395 24l8 -10l-225 -823q-31 -113 20 -113q39 0 92.5 71.5t92.5 145.5l49 -29q-57 -129 -142 -212t-178 -83q-172 0 -118 201l176 655q16 53 4 74t-74 21h-338l-190 -863q-68 -307 -148 -433t-229 -126q-74 0 -129 35t-57 80z" />
<glyph unicode="&#xfb02;" horiz-adv-x="1234" d="M-147 -381q0 43 28.5 75t57.5 32q31 0 61 -45q66 -100 109 -101q39 0 65 139l238 1207h-185l23 78h178l23 75q131 440 489 441q154 0 238 -99l151 99l29 -19l-320 -1308q-27 -111 21 -111q35 0 92 69.5t96 147.5l49 -29q-53 -125 -142 -210t-191 -85q-156 0 -107 201 l262 1073q-14 88 -64 143.5t-146.5 55.5t-160 -95.5t-114.5 -295.5l-15 -53h265l-21 -78h-256l-190 -863q-68 -307 -148 -433t-229 -126q-74 0 -129 35t-57 80z" />
<glyph horiz-adv-x="0" />
<glyph unicode="&#xd;" horiz-adv-x="681" />
<glyph unicode=" "  horiz-adv-x="460" />
<glyph unicode="&#x09;" horiz-adv-x="460" />
<glyph unicode="&#xa0;" horiz-adv-x="460" />
<glyph unicode="!" horiz-adv-x="491" d="M141 98.5q0 57.5 37 94.5q37 39 92 38q57 0 90 -34q31 -33 31 -88.5t-37 -94.5t-92 -39q-57 0 -90 33q-31 33 -31 90.5zM307 428l113 891q8 63 38.5 96t106.5 33q78 0 94 -39q18 -39 -8 -100l-286 -881h-58z" />
<glyph unicode="&#x22;" horiz-adv-x="823" d="M422 961l24 452q4 55 29 82q27 25 84 25q123 0 84 -107l-164 -452h-57zM770 961l25 452q4 55 28 82q27 25 84 25q123 0 84 -107l-164 -452h-57z" />
<glyph unicode="#" d="M182 473l35 98h213l94 269h-215l35 98h215l152 430h114l-149 -430h270l152 430h112l-149 -430h209l-31 -98h-213l-94 -269h211l-31 -98h-215l-166 -473h-115l166 473h-270l-166 -473h-117l166 473h-213zM547 571h270l94 269h-270z" />
<glyph unicode="$" d="M135 246q2 45 31 73.5t67.5 28.5t55.5 -49q68 -203 223 -223l131 571q-293 121 -293 340q0 176 129 279.5t332 101.5l37 154h82l-35 -158q127 -10 217 -70.5t88 -146.5q-2 -41 -32.5 -66.5t-65.5 -25.5q-45 0 -58 53q-41 164 -165 184l-117 -501q150 -70 232.5 -158 t82.5 -234q0 -180 -137 -290.5t-360 -108.5l-48 -223h-86l52 227q-160 10 -262.5 82t-100.5 160zM514 1065q0 -98 42 -147.5t128 -92.5l111 471q-127 0 -204 -67.5t-77 -163.5zM598 72q135 -4 219 71.5t84 202.5q0 178 -182 264z" />
<glyph unicode="%" horiz-adv-x="1691" d="M272 934q0 133 68 246.5t151.5 163t196.5 49.5q115 0 213 -74q33 -27 94 -27h367q86 6 174 94l51 52l62 -49l-1239 -1440l-64 57l1045 1217h-443q10 -39 10 -102.5t-12 -122t-42 -123t-73 -115.5t-114.5 -84t-159.5 -33q-145 0 -215 80t-70 211zM430 868q0 -164 129 -163 q68 0 119 57t87 178t36 227q0 164 -121 164q-63 0 -114.5 -57t-93.5 -180.5t-42 -225.5zM1014 266q0 133 67.5 247t151.5 163t205 49q123 0 192.5 -78t69.5 -203q0 -119 -42 -210t-85 -142t-115 -84t-160 -33q-145 0 -214.5 80t-69.5 211zM1171 201q0 -164 129 -164 q68 0 119 57.5t87 178t36 227.5q0 164 -121 164q-63 0 -114.5 -57.5t-93.5 -180.5t-42 -225z" />
<glyph unicode="&#x26;" horiz-adv-x="1484" d="M195 332q0 72 26.5 135t59 102t93 80t77.5 51l116 56q-31 51 -51 125.5t-20 128.5q0 174 105.5 278.5t242.5 104.5q135 0 220 -70t85 -193q0 -141 -106.5 -216.5t-278.5 -145.5q119 -213 332 -442q213 221 241 528q86 41 158 33q37 -106 -14 -211q-106 -197 -340 -404 q6 -6 26 -24l117 -105q98 -86 219 -106l-8 -51l-102 4q-211 8 -373 164q-215 -178 -418 -179q-205 0 -306 106t-101 251zM389 369q0 -125 78 -209t203 -84q166 0 303 127q-213 221 -373 491q-70 -29 -140.5 -115.5t-70.5 -209.5zM659 1061q0 -125 74 -240 q111 53 183.5 139.5t72.5 194.5q0 68 -37 117t-108 49q-74 0 -129.5 -68.5t-55.5 -191.5z" />
<glyph unicode="'" horiz-adv-x="442" d="M401 961l25 452q4 55 29.5 81t83.5 26q123 0 84 -107l-164 -452h-58z" />
<glyph unicode="(" horiz-adv-x="716" d="M330 624.5q82 368.5 255 584.5t425 208l-11 -51q-160 -27 -302 -206t-224 -533q-86 -412 -14.5 -616t174.5 -226l-12 -47q-207 14 -290 266t-1 620.5z" />
<glyph unicode=")" horiz-adv-x="716" d="M-23 -262l11 47q160 27 302 208t224 535q86 410 15.5 612.5t-175.5 225.5l13 51q207 -14 289.5 -266t0.5 -620.5t-255 -584.5t-425 -208z" />
<glyph unicode="*" horiz-adv-x="843" d="M303 901q-37 74 31 96l246 84q18 6 18 17.5t-20 19.5l-177 64q-37 12 -41 41.5t19 60.5q49 70 94 25l139 -144q12 -12 21.5 -7t9.5 26l-4 200q0 63 84 64q41 0 56.5 -17.5t0.5 -48.5l-90 -198q-8 -20 0 -26.5t27 7.5l186 146q57 41 96 -29q37 -68 -28 -88l-244 -80 q-39 -14 -27 -31q4 -4 13 -6l196 -80q27 -10 29 -36.5t-25 -61.5q-51 -63 -94 -14l-129 145q-14 14 -24.5 7t-10.5 -25l4 -215q2 -37 -19.5 -52.5t-64.5 -15.5t-58 23.5t1 58.5l90 201q10 20 2 27.5t-30 -9.5l-172 -145q-70 -60 -105 16z" />
<glyph unicode="+" horiz-adv-x="1167" d="M190 453v118h426v433h140v-433h426v-118h-426v-453h-140v453h-426z" />
<glyph unicode="," horiz-adv-x="542" d="M94 -238q135 131 146 236q4 45 -23 104q-25 57 -24.5 90t33 66t83.5 33q51 2 84 -42t33 -103.5t-24.5 -119t-81 -121t-87 -90t-104.5 -89.5z" />
<glyph unicode="-" horiz-adv-x="802" d="M240 442l28 144h502l-29 -144h-501z" />
<glyph unicode="." horiz-adv-x="542" d="M168 98.5q0 57.5 37 95t94 37.5q55 0 87 -33.5t32 -89t-37 -94.5t-94 -39q-55 0 -87 33t-32 90.5z" />
<glyph unicode="/" horiz-adv-x="552" d="M72 -31l553 1479h145l-553 -1479h-145z" />
<glyph unicode="0" d="M195 438.5q0 141.5 39.5 310.5t109.5 300q186 344 469 344q367 0 367 -449q0 -129 -36 -300t-112 -329q-166 -340 -461 -340q-137 0 -225 67t-119.5 161t-31.5 235.5zM379 319q0 -272 192 -272q117 0 195 120t131 296q51 178 74.5 339t23.5 265t-40 179t-140 75 q-102 0 -187 -112.5t-145 -299.5q-104 -316 -104 -590z" />
<glyph unicode="1" d="M223 0l13 59l186 15q53 4 67 73l232 1037q12 61 -25 67l-198 21l16 49l420 72l16 -13l-278 -1233q-16 -74 43 -77l182 -11l-12 -59h-662z" />
<glyph unicode="2" d="M68 20q45 129 150.5 249t326.5 272q223 152 323.5 276.5t100.5 267.5q0 236 -193 236q-178 0 -274 -272q-16 -51 -56 -52q-41 0 -72.5 28t-31.5 71q0 98 126 197.5t306 99.5q182 0 291 -86t109 -250q0 -197 -187 -344q-70 -53 -280 -176q-336 -195 -431 -385h512 q68 0 103 21.5t86 94.5l61 -12l-110 -256h-838z" />
<glyph unicode="3" d="M111 227q0 47 32.5 80t73.5 33t59 -64q59 -229 267 -229q119 0 215 99.5t96 310.5q0 88 -46 174t-171 86q-51 0 -115.5 -10.5t-70.5 -10.5q-39 0 -39 45q0 29 13 52.5t27.5 23.5t82 -11t120.5 -11q123 0 206 92t83 223q0 82 -41 146.5t-149 64.5q-158 0 -242 -215 q-23 -55 -57 -55q-37 0 -67 25.5t-30 68.5q0 90 120 169t286 79q92 0 173 -25t144.5 -96.5t63.5 -184.5q0 -152 -110.5 -231.5t-252.5 -89.5v-6q109 -14 197 -95t88 -229q0 -223 -154.5 -342t-363.5 -119q-211 0 -324.5 82t-113.5 170z" />
<glyph unicode="4" d="M137 422q475 594 824 946h139l-187 -891h201l-20 -94h-201l-51 -246q-14 -70 41 -71l102 -7l-14 -59h-541l16 59l152 11q57 4 70 67l51 246h-563zM309 477h430l150 697l-4 4q-265 -283 -576 -701z" />
<glyph unicode="5" d="M121 221q0 47 33.5 81t74.5 34t58 -60q61 -229 268 -229q131 0 229.5 120t98.5 283.5t-65.5 246.5t-178.5 83q-158 0 -270 -135l-50 25l150 682l20 16h699l10 -22l-86 -129h-508q-29 0 -43 -9.5t-22 -40.5l-111 -383l4 -4q117 94 285 94q170 0 274.5 -100t104.5 -278 q0 -221 -160 -371t-395 -150q-197 0 -308.5 78t-111.5 168z" />
<glyph unicode="6" d="M186 432q0 207 71 423t179 343q168 195 410 195q182 0 268 -72t86 -150q0 -41 -36 -67.5t-72 -26.5q-49 0 -60 58q-39 186 -188.5 186t-262 -165t-173.5 -464h4q156 168 338 168t274 -101.5t92 -269.5q0 -125 -53 -238.5t-173 -194.5t-282 -81q-223 0 -322.5 125 t-99.5 332zM377 344q0 -297 229 -297q127 0 219.5 124t92.5 335q0 115 -60.5 184.5t-165.5 69.5q-147 0 -231 -110.5t-84 -305.5z" />
<glyph unicode="7" d="M338 1085l86 283h860l16 -22q-72 -170 -143.5 -263.5t-118.5 -148.5l-172 -207q-119 -141 -187.5 -293.5t-105.5 -374.5q-8 -49 -31.5 -66.5t-78.5 -17.5q-98 0 -98 76q0 119 96 286t339.5 443.5t301.5 436.5h-494q-76 0 -113.5 -18.5t-62.5 -59.5l-33 -54h-61z" />
<glyph unicode="8" d="M166 342q0 164 107.5 280.5t258.5 135.5v8q-168 72 -167 254q0 180 125.5 276.5t312.5 96.5q184 0 274 -92.5t90 -223.5t-81.5 -215t-202.5 -108v-6q82 -29 148.5 -113t66.5 -211q0 -199 -129 -324t-359 -125q-227 0 -335.5 101.5t-108.5 265.5zM362 328q0 -141 65 -211 t191 -70q125 0 204 117t79 289q0 117 -61.5 183t-167.5 66q-135 0 -222.5 -115.5t-87.5 -258.5zM547 995q0 -215 188 -215q104 0 177 101.5t73 253.5q0 80 -47 133t-137 53q-123 0 -188.5 -110t-65.5 -216z" />
<glyph unicode="9" d="M176 197q0 51 32 82.5t68 31.5q43 0 60 -61q53 -203 209 -203q174 0 286 236q90 190 123 409h-4q-147 -147 -309 -147t-265.5 98t-103.5 256q0 223 138.5 358.5t332.5 135.5q426 0 426 -521q0 -174 -55 -367.5t-164 -328.5q-160 -201 -411 -201q-162 0 -262.5 72 t-100.5 150zM463 926q0 -123 59.5 -201t186.5 -78q125 0 195.5 80t70.5 235.5t-51.5 257t-176 101.5t-204.5 -104.5t-80 -290.5z" />
<glyph unicode=":" horiz-adv-x="542" d="M168 98.5q0 57.5 37 94.5q37 39 94 38q55 0 86 -34q33 -33 33 -88.5t-37 -94.5t-94 -39q-55 0 -86 33q-33 33 -33 90.5zM330 870.5q0 57.5 37 96.5q37 37 92 37q57 0 90 -33q31 -35 31 -90.5t-37 -94t-92 -38.5q-57 0 -91 32q-30 33 -30 90.5z" />
<glyph unicode=";" horiz-adv-x="542" d="M94 -238q135 131 146 236q4 45 -23 104q-25 57 -24.5 90t33 66t83.5 33q51 2 84 -41q33 -45 33 -104.5t-24.5 -119t-82.5 -120.5q-55 -61 -85.5 -90t-104.5 -90zM330 870.5q0 57.5 37 96.5q37 37 92 37q57 0 90 -33q31 -35 31 -90.5t-37 -94t-92 -38.5q-57 0 -91 32 q-30 33 -30 90.5z" />
<glyph unicode="&#x3c;" horiz-adv-x="1167" d="M176 424v166l979 428v-141l-858 -369l858 -369v-137z" />
<glyph unicode="=" horiz-adv-x="1167" d="M190 227v119h992v-119h-992zM190 678v119h992v-119h-992z" />
<glyph unicode="&#x3e;" horiz-adv-x="1167" d="M176 2v137l858 369l-858 369v141l979 -428v-166z" />
<glyph unicode="?" horiz-adv-x="870" d="M307 98.5q0 57.5 37 94.5q37 39 94 38q55 0 86 -34q33 -33 33 -88.5t-37 -94.5t-94 -39q-55 0 -86 33q-33 33 -33 90.5zM328 584q0 129 213 252q139 82 207 184q68 104 67 188q0 168 -121 168t-205 -213q-14 -39 -53 -39t-69.5 25t-30.5 65q0 76 96 154q96 80 247.5 80 t238.5 -72q88 -72 88 -190.5t-64 -186.5q-61 -68 -188 -131q-125 -63 -185 -118q-59 -57 -59 -125q0 -125 131 -125q14 0 88 6l12 -35q-88 -63 -188 -63q-98 0 -162 43q-63 45 -63 133z" />
<glyph unicode="@" horiz-adv-x="1626" d="M252 621q0 250 120 442t305 288.5t400 96.5q285 0 456 -172t171 -428q0 -207 -138.5 -351.5t-322.5 -144.5q-100 0 -130 59.5t15 221.5l-4 2q-55 -98 -162.5 -191.5t-211.5 -91.5q-55 2 -95.5 41t-40.5 108.5t18.5 138.5t59.5 148.5t98.5 146t146.5 112t173 45.5 q82 0 133 -27l8 16h133l-135 -528q-31 -123 70 -123q104 0 193.5 126t89.5 282q4 244 -144.5 385t-361.5 141t-369 -106.5t-235.5 -272.5t-79.5 -356q0 -211 94 -341t216 -184.5t302 -54.5t330 64l16 -52q-168 -92 -420 -92q-270 0 -423.5 118t-214 246t-60.5 288z M782 557.5q0 -108.5 70 -108.5q100 0 222 195.5t155 359.5q-43 29 -107 28q-66 0 -134 -56t-137 -183t-69 -235.5z" />
<glyph unicode="A" horiz-adv-x="1277" d="M-47 0l12 59l68 9q49 4 83 30.5t60 69.5l715 1249h145l152 -1233q8 -68 22.5 -91t59.5 -27l78 -7l-13 -59h-504l13 59l108 11q33 4 44.5 20t7.5 60l-48 397h-458l-211 -402q-11 -25 -11 -41q0 -31 37 -34l113 -11l-12 -59h-461zM539 625h407l-72 602h-4z" />
<glyph unicode="B" horiz-adv-x="1294" d="M78 0l12 59l115 13q37 4 56.5 25.5t29.5 72.5l241 1077q7 29 7 48q0 15 -5 25q-10 20 -45 26l-120 12l12 59h493h27q234 0 344 -67q129 -76 129 -242q0 -127 -97 -222t-290 -118l-2 -6q131 -25 220 -108t89 -230q0 -152 -110 -274q-59 -68 -183 -109t-301 -41h-622z M496 203q-5 -22 -5 -40q-1 -39 23 -61q34 -30 174 -30q193 0 289 106.5t96 257.5q0 291 -381 291h-80zM627 799h133q184 0 284 75q121 96 121 242q0 109 -69.5 169.5t-184 60.5t-140.5 -12.5t-36 -59.5z" />
<glyph unicode="C" horiz-adv-x="1353" d="M233 563q0 287 140 512q100 164 280.5 268.5t446.5 104.5q117 0 243.5 -27.5t208.5 -81.5l-73 -307h-62q1 16 1 32q0 150 -70 227q-78 85 -265 85q-309 0 -483 -291q-72 -119 -109.5 -274.5t-37.5 -300.5q0 -229 111.5 -349t290.5 -120t278.5 82t195.5 258h62l-101 -326 q-172 -86 -416 -86q-410 0 -561 269q-80 141 -80 325z" />
<glyph unicode="D" horiz-adv-x="1562" d="M82 0l12 59l115 13q37 2 55.5 24.5t28.5 73.5l244 1077q5 26 5 45q0 18 -4 30q-10 24 -44 26l-121 10l12 59h551q530 0 661 -332q45 -115 45 -243q0 -264 -137 -471q-246 -371 -794 -371h-629zM489 176q-3 -15 -3 -28q0 -40 32 -56q43 -20 139 -20q242 0 390.5 82 t242.5 237q133 219 133 496q0 59 -6 110.5t-33.5 118t-74.5 113.5t-137 81q-91 32 -219 34q-14 0 -26 1q-105 1 -139 -11q-38 -12 -51 -64z" />
<glyph unicode="E" horiz-adv-x="1220" d="M78 0l12 59l115 13q37 2 54 23.5t30 74.5l246 1081q6 28 6 47q-1 17 -5 27q-10 21 -47 25l-122 8l14 59h1036l-78 -342h-61q7 61 7 109q0 24 -2 44q-5 60 -59.5 89t-179.5 29h-247q-27 0 -38 -11.5t-20 -48.5l-116 -510h268q160 0 205 64q23 33 51 110h61l-94 -428h-61 q1 19 1 35q0 79 -24 107q-29 34 -156 34h-268l-104 -448q-15 -66 -15 -97q1 -3 1 -5q2 -30 30.5 -53t224 -23t283.5 53t164 235h61l-104 -360h-1069z" />
<glyph unicode="F" horiz-adv-x="1169" d="M78 0l12 59l115 11q35 2 54.5 24.5t29.5 69.5l246 1089q5 20 5 36q0 52 -51 57l-120 12l12 59h1042l-77 -338h-62q7 60 7 106q0 23 -2 43q-5 60 -59 89t-179 29h-252q-29 0 -40 -11.5t-20 -50.5l-123 -536h271q129 0 172 31.5t84 144.5h61l-94 -430h-61q1 19 1 35 q0 79 -24 107q-29 34 -156 34h-270l-115 -506q-5 -20 -5 -36q0 -53 52 -58l154 -11l-12 -59h-596z" />
<glyph unicode="G" horiz-adv-x="1452" d="M233 588.5q0 316.5 195 564.5q231 295 684 295q270 0 459 -102l-74 -320h-61q2 27 2 52q0 209 -148 270q-71 29 -192 29q-2 0 -4 -1q-125 0 -239 -53t-186.5 -136t-119.5 -192q-90 -205 -90 -446.5t117.5 -374.5t312.5 -133q143 0 192 27.5t62 83.5l76 309q7 27 7 47 q0 47 -42 51l-154 14l12 60h539l-12 -60l-90 -8q-41 -4 -64 -104l-96 -414q-211 -78 -434 -78q-301 0 -477 152q-175 151 -175 467.5z" />
<glyph unicode="H" horiz-adv-x="1587" d="M82 0l12 59l113 13q37 2 55.5 23.5t30.5 74.5l246 1077q5 23 5 40q0 57 -50 63l-121 8l14 59h561l-14 -59l-113 -10q-37 -2 -55 -25t-31 -76l-108 -471h684l106 471q5 23 5 40q0 57 -50 63l-121 8l15 59h561l-15 -59l-112 -10q-37 -2 -55.5 -25t-30.5 -76l-246 -1077 q-6 -24 -6 -43q0 -55 51 -59l121 -9l-12 -59h-561l12 59l112 13q37 2 55.5 23.5t30.5 74.5l121 528h-684l-119 -528q-6 -27 -6 -47q1 -17 5 -29q10 -24 47 -26l120 -9l-12 -59h-561z" />
<glyph unicode="I" horiz-adv-x="706" d="M82 0l12 59l113 13q37 2 56.5 25.5t29.5 72.5l246 1077q6 24 6 43q0 55 -51 60l-121 8l14 59h561l-14 -59l-113 -10q-37 -2 -55 -27t-31 -74l-246 -1077q-6 -24 -6 -42q0 -55 52 -60l120 -9l-12 -59h-561z" />
<glyph unicode="J" horiz-adv-x="720" d="M-88 -188q162 16 256 104q96 88 164 379l223 958q5 23 5 41t-5 29q-10 23 -47 25l-121 10l14 59h564l-15 -59l-112 -8q-37 -2 -56.5 -24.5t-29.5 -72.5l-240 -1030q-66 -281 -215 -387q-115 -80 -317 -80q-23 0 -68 4v52z" />
<glyph unicode="K" horiz-adv-x="1331" d="M82 0l12 59l113 13q37 2 56.5 25.5t29.5 72.5l246 1077q6 24 6 43q0 55 -51 60l-121 8l14 59h561l-14 -59l-113 -10q-37 -2 -55 -27t-31 -74l-110 -485l4 -4q469 397 610 526q32 31 32 48t-30 20l-78 6l8 59h510l-8 -59q-117 -8 -176 -31q-160 -66 -698 -518 q176 -367 362 -602q66 -80 113 -116t127 -42l-15 -59l-100 2q-119 4 -194.5 43t-149.5 137q-125 170 -319 567h-5l-129 -569q-6 -24 -6 -42q0 -55 52 -60l120 -9l-12 -59h-561z" />
<glyph unicode="L" horiz-adv-x="1157" d="M82 0l12 59l113 13q37 4 55.5 24.5t30.5 73.5l246 1077q6 24 6 42q0 54 -51 59l-121 10l14 59h571l-14 -59l-123 -8q-37 -2 -56.5 -26t-31.5 -77l-227 -997q-14 -64 -14 -95v-7q2 -30 30.5 -53t217 -23t273.5 53t161 235h61l-105 -360h-1048z" />
<glyph unicode="M" horiz-adv-x="1884" d="M63 0l11 59l63 7q49 4 76 22t45 66q37 102 72 254l192 839q6 23 6 41q0 53 -51 58l-121 12l15 59h397q29 -154 117 -547l114 -567h7l362 553q246 375 354 561h402l-15 -59l-112 -8q-37 -2 -55.5 -26t-30.5 -77l-246 -1077q-7 -27 -7 -46q0 -16 5 -26q10 -24 47 -26 l121 -13l-12 -59h-557l12 59l112 13q37 2 55.5 23.5t31.5 74.5l251 1071h-6l-796 -1216h-58l-246 1216h-4l-188 -833q-33 -147 -43 -254q-1 -7 -1 -13q0 -35 20 -51q22 -20 75 -24l80 -7l-10 -59h-484z" />
<glyph unicode="N" horiz-adv-x="1562" d="M63 0l11 59l63 7q92 8 121 88q37 102 72 254l192 839q6 23 6 41q0 53 -51 58l-121 12l15 59h389l524 -1149h8l168 742q33 147 43 254q1 7 1 14q0 36 -18 49q-22 16 -77 23l-80 8l10 59h484l-11 -59l-63 -6q-92 -8 -121 -88q-37 -102 -72 -254l-229 -1010h-133l-569 1247 h-7l-192 -839q-33 -147 -43 -254q-1 -7 -1 -13q0 -35 20 -51q22 -20 75 -24l80 -7l-10 -59h-484z" />
<glyph unicode="O" horiz-adv-x="1542" d="M233 560q0 271 142 511q227 377 649 377q268 0 430 -149.5t162 -450.5q0 -256 -129 -490q-98 -178 -251 -283.5t-402 -105.5q-295 0 -448 160t-153 431zM449 471q0 -209 98 -319.5t268 -110.5q332 0 490 410q96 250 96 482t-97.5 337.5t-271.5 105.5q-291 0 -457 -344 q-126 -268 -126 -561z" />
<glyph unicode="P" horiz-adv-x="1257" d="M82 0l12 59l113 13q37 2 55.5 23.5t30.5 74.5l246 1077q6 24 6 42q0 54 -51 59l-121 10l14 59h479q528 0 529 -377q0 -115 -54.5 -213t-152.5 -157q-158 -96 -455 -97h-151l-93 -403q-6 -26 -6 -45q1 -17 5 -27q10 -24 47 -26l141 -13l-12 -59h-582zM609 687q0 -10 9 -23 q18 -18 121 -19q211 0 326 108.5t115 323.5q0 268 -308 269q-74 0 -97 -14.5t-34 -57.5l-125 -543q-7 -37 -7 -44z" />
<glyph unicode="Q" horiz-adv-x="1542" d="M233 573q0 258 142 498q227 377 649 377q268 0 430 -149.5t162 -450.5q0 -256 -129 -490q-184 -334 -529 -381q49 -78 136 -163q162 -162 327 -162h4l7 -35q-55 -33 -154 -33q-188 0 -348 135q-135 113 -211 258q-240 31 -363 184.5t-123 411.5zM449 471 q0 -209 98 -319.5t268 -110.5q332 0 490 410q96 250 96 482t-97.5 337.5t-271.5 105.5q-291 0 -457 -344q-126 -268 -126 -561z" />
<glyph unicode="R" horiz-adv-x="1310" d="M82 0l12 59l113 13q37 4 55.5 24.5t30.5 73.5l246 1077q6 24 6 42q0 54 -51 59l-121 10l14 59h553q446 0 446 -330q0 -150 -115.5 -252t-305.5 -128v-5q102 -27 147 -98q37 -57 39 -160q2 -35 2 -96v-33q0 -137 31 -187q35 -56 162 -69l-19 -59h-160q-184 0 -206 158 q-10 78 -10 207q1 6 1 13v21q0 119 -6 142q-12 70 -65 100q-39 27 -156 27h-123l-113 -498q-6 -28 -6 -48q1 -16 5 -26q10 -22 47 -26l120 -11l-12 -59h-561zM618 739h132q201 0 311 94.5t110 274.5q0 125 -71.5 181.5t-182 56.5t-138 -14.5t-40.5 -63.5z" />
<glyph unicode="S" horiz-adv-x="1091" d="M141 137l54 314h59q-1 -15 -1 -29q0 -174 91 -274q98 -108 246.5 -107.5t230.5 89.5t82 207t-64.5 191.5t-201.5 141t-215 153.5t-78 219q0 145 100 269q51 61 147.5 99t223.5 38q233 0 367 -105l-74 -286h-59q4 37 4 69q0 250 -252 250q-131 0 -208 -73.5t-77 -186.5 q0 -123 123 -205q45 -31 66 -43l75 -39q160 -82 233.5 -177t73.5 -230q0 -176 -108 -307q-121 -141 -410 -146q-121 0 -246 46t-182 122z" />
<glyph unicode="T" horiz-adv-x="1241" d="M281 1075l77 342h1164l-78 -342h-62q6 58 6 103q0 28 -2 50q-6 60 -60 89t-177 29h-129l-266 -1180q-6 -23 -6 -40q0 -55 59 -58l149 -9l-14 -59h-631l15 59l133 9q45 2 66.5 25.5t31.5 72.5l266 1180h-141q-150 0 -220.5 -56.5t-119.5 -214.5h-61z" />
<glyph unicode="U" horiz-adv-x="1626" d="M362 524l173 723q6 24 6 42q0 54 -52 59l-120 10l14 59h561l-14 -59l-113 -8q-37 -2 -55.5 -26t-30.5 -77l-162 -696q-27 -117 -27 -207q0 -303 308 -303q197 0 295 128t153 363l166 715q6 24 6 42q0 54 -51 59l-121 10l15 59h561l-14 -59l-113 -10q-37 -2 -55.5 -25 t-30.5 -76l-174 -741q-90 -385 -332 -486q-80 -33 -150.5 -42t-164.5 -9q-284 0 -416 132q-87 86 -86 241q0 81 24 182z" />
<glyph unicode="V" horiz-adv-x="1304" d="M268 1358l11 59h512l-11 -59l-131 -12q-36 -3 -36 -53q0 -7 1 -15q25 -266 62 -528l72 -545h4l292 510q252 438 291 521q34 72 34 91q0 3 -1 4q-6 12 -35 17l-112 10l10 59h450l-10 -59q-84 -6 -118.5 -22.5t-67.5 -67.5q-123 -190 -340 -561l-416 -707h-141l-162 1251 q-8 53 -23.5 72.5t-52.5 24.5z" />
<glyph unicode="W" horiz-adv-x="1937" d="M248 1358l12 59h518l-14 -59l-133 -12q-44 -2 -44 -53q0 -6 1 -13l67 -1030h11l555 1130h143l104 -1130h9l245 514q176 367 234 510q9 23 9 38q0 27 -28 31l-133 15l11 59h458l-10 -59q-94 -8 -125 -27.5t-80 -105.5q-49 -84 -250 -494l-356 -731h-143l-107 1128h-10 l-561 -1128h-144l-90 1262q-4 47 -15 65.5t-44 20.5z" />
<glyph unicode="X" horiz-adv-x="1294" d="M-2 0l12 59q100 10 140 24.5t88 66.5q127 135 483 565q-39 88 -120 286.5t-108.5 259t-62.5 75t-133 22.5l12 59h533l-13 -59l-106 -8q-43 -4 -43 -39q0 -15 8 -35l168 -408h4q168 193 340 418q18 24 18 39q0 21 -36 25l-88 8l12 59h471l-12 -59q-139 -10 -197 -60 q-199 -182 -475 -514l276 -620q29 -63 66 -79.5t145 -25.5l-12 -59h-553l10 59l107 11q44 4 44 38q0 15 -9 35l-205 482h-8q-238 -293 -379 -496q-13 -18 -13 -31q0 -22 41 -26l117 -13l-12 -59h-510z" />
<glyph unicode="Y" horiz-adv-x="1210" d="M268 1358l13 59h510l-13 -59l-112 -10q-41 -5 -41 -41q0 -9 2 -19l186 -629h6q307 416 432 631q10 19 10 32q0 26 -40 28l-107 8l12 59h469l-12 -59q-86 -6 -123 -24.5t-92 -80.5q-190 -217 -471 -624q-41 -55 -57 -123l-78 -346q-5 -22 -5 -38.5t5 -27.5q10 -20 47 -22 l156 -13l-13 -59h-635l13 59l147 15q39 4 56.5 23.5t27.5 62.5l78 344q7 30 7 57t-7 51q-158 528 -188 621q-33 90 -59 103.5t-124 21.5z" />
<glyph unicode="Z" horiz-adv-x="1273" d="M31 27l1194 1319h-400q-174 0 -245.5 -50.5t-133.5 -224.5h-61l76 346h1040l10 -26l-1196 -1319h416q248 0 344 51t176 237h62l-105 -360h-1169z" />
<glyph unicode="[" horiz-adv-x="675" d="M213 -262l381 1679h326l-11 -55q-137 -8 -172 -25.5t-51 -87.5l-307 -1343q-14 -70 11.5 -87.5t158.5 -25.5l-10 -55h-326z" />
<glyph unicode="\" horiz-adv-x="798" d="M254 1448h145l432 -1479h-145z" />
<glyph unicode="]" horiz-adv-x="675" d="M29 -262l10 55q139 8 173 25.5t50 87.5l307 1343q16 70 -9 87.5t-161 25.5l11 55h325l-381 -1679h-325z" />
<glyph unicode="^" horiz-adv-x="1167" d="M242 467l401 901h158l391 -901h-156l-315 752l-324 -752h-155z" />
<glyph unicode="_" horiz-adv-x="1024" d="M0 -154h1024v-102h-1024v102z" />
<glyph unicode="`" horiz-adv-x="819" d="M371 1393q0 29 27.5 58.5t52.5 29.5q49 0 131 -84l243 -246l-30 -41l-310 172q-114 62 -114 111z" />
<glyph unicode="a" horiz-adv-x="1148" d="M135 210q0 93 27.5 196.5t87 214t141.5 200.5t204 148.5t235.5 58.5t175.5 -43l10 27h172l-217 -817q-12 -43 -11 -69q0 -44 31 -44q39 0 92.5 71.5t92.5 145.5l49 -29q-57 -129 -144.5 -212t-195.5 -83q-110 0 -110 112q0 48 20 118l69 233h-4q-264 -463 -528 -463 q-98 0 -147.5 71t-49.5 164zM338 225q0 -143 90 -143q133 0 338 311q147 221 219 518q-49 45 -125 45q-113 0 -216 -81.5t-166.5 -199.5t-101.5 -240t-38 -210z" />
<glyph unicode="b" horiz-adv-x="1144" d="M168 0l301 1309q8 37 8 58q0 11 -3 19q-7 18 -46 23l-117 14l13 47l366 50l10 -11l-227 -903h4q115 203 254 312.5t256 109.5t171 -69.5t54 -172.5q0 -233 -135 -471q-84 -150 -215 -245t-299 -95q-88 0 -159.5 40t-98.5 104l-63 -119h-74zM420 223q0 -78 45 -127 t136 -49t178 88t134 211q99 257 99 417q0 159 -111 159q-88 0 -191.5 -101.5t-181.5 -238.5q-108 -197 -108 -359z" />
<glyph unicode="c" horiz-adv-x="903" d="M166 303q0 172 70.5 336t210 276.5t313.5 112.5q115 0 189.5 -52t74.5 -130q0 -47 -45 -81t-86 -34q-53 0 -59 62q-16 163 -122 163h-1q-90 0 -171 -98t-126 -238.5t-45 -271.5q0 -129 38.5 -200.5t141.5 -71.5q152 0 328 239l49 -39q-180 -301 -467 -301q-123 0 -208 78 t-85 250z" />
<glyph unicode="d" horiz-adv-x="1202" d="M147 246q0 178 109 381q57 109 136 197.5t198 146t239.5 57.5t186.5 -35l4 4l78 330q8 33 8 51q0 8 -2 14q-6 16 -43 19l-123 12l12 47l365 50l10 -11l-324 -1314q-11 -41 -11 -68q0 -45 32 -45q39 0 92 71.5t92 145.5l49 -29q-57 -129 -143 -212t-190 -83h-5 q-75 1 -97 59q-10 27 -10 62q0 46 17 107l68 243h-4q-260 -471 -539 -471q-205 1 -205 271zM350 229q0 -147 103 -147q76 0 168 90t174 223q150 242 202 520q-45 41 -150.5 41t-206.5 -81.5t-161.5 -199.5t-94.5 -238t-34 -208z" />
<glyph unicode="e" horiz-adv-x="927" d="M164 311q0 274 170 484q188 233 448 233q121 0 187.5 -59.5t66.5 -157.5t-86 -184q-160 -147 -581 -234q-2 -14 -2 -33q0 -284 185 -284h1q139 0 274 153q27 33 64 80l47 -41q-180 -293 -469 -293q-104 0 -195 60q-110 71 -110 276zM373 463q244 51 357.5 152.5 t113.5 220.5q0 53 -33 86.5t-86 33.5q-119 0 -222 -150t-130 -343z" />
<glyph unicode="f" horiz-adv-x="645" d="M-146 -379q0 42 28 73q28 32 57.5 32t60.5 -45q66 -100 109 -101q39 0 65 139l238 1207h-183l23 78h178l21 75q51 197 133 299q111 141 286 142q92 0 163 -47.5t71 -112.5q0 -37 -34 -63.5t-68.5 -26.5t-53.5 35q-35 76 -65.5 109.5t-72.5 33.5t-73.5 -49t-60.5 -164 l-58 -231h267l-21 -78h-258l-190 -863q-68 -307 -148 -433t-229 -126q-74 0 -129 35q-56 36 -56 82z" />
<glyph unicode="g" horiz-adv-x="1021" d="M61 -206q0 126 95.5 196.5t220.5 93.5v4q-145 68 -146 154q0 76 158 141l29 12v4q-61 23 -116.5 87.5t-55.5 164.5q0 125 90 242q47 59 137 97t229.5 38t233.5 -61l297 82l12 -19l-67 -129l-172 -24q43 -55 43 -142q0 -162 -117 -264t-326 -102q-70 0 -110 6 q-90 -23 -90 -80q0 -41 55 -67.5t192 -59.5q358 -86 359 -322q0 -162 -141.5 -252t-349.5 -90t-334 82t-126 208zM250 -183.5q0 -105.5 86 -173t214 -67.5t208 59.5t80 171.5q0 190 -371 244q-78 -12 -147.5 -70.5t-69.5 -164zM438 614.5q0 -75.5 45 -125t125 -49.5 q113 0 182.5 99.5t69.5 244.5q0 94 -51 133t-127 39t-137.5 -60t-84 -133t-22.5 -148.5z" />
<glyph unicode="h" horiz-adv-x="1243" d="M188 -25l299 1334q8 37 8 58q0 11 -3 19q-7 18 -46 23l-116 14l12 47l369 50l10 -11l-229 -938h6q102 195 252.5 326t279.5 131t163 -88q15 -39 15 -84q0 -57 -24 -125l-162 -536q-14 -44 -14 -71q0 -42 34 -42q39 0 92.5 71.5t92.5 145.5l49 -29q-57 -129 -141 -212 t-185 -83q-124 0 -124 117q0 44 18 105l168 581q9 32 9 58q-1 26 -9 46q-18 40 -66 40q-82 0 -178 -86q-178 -162 -264 -385q-53 -135 -137 -451z" />
<glyph unicode="i" horiz-adv-x="649" d="M246 176l172 641q9 34 9 54q0 13 -3 19q-8 20 -49 21l-117 11l12 49l373 57l10 -10l-223 -823q-12 -42 -11 -69q0 -44 32 -44q39 0 92 71.5t92 145.5l49 -29q-57 -129 -142 -212t-177 -83q-131 0 -131 117q0 37 12 84zM500 1328q0 54 35.5 95t90 41t86 -28.5t31.5 -87 t-35.5 -96.5t-90 -38t-86 30t-31.5 84z" />
<glyph unicode="j" horiz-adv-x="632" d="M-122 -380q0 43 28 74q28 32 59 32t58 -41q74 -109 116 -109q33 0 47 64l250 1169q10 39 10 62q0 8 -1 15q-5 23 -39 25l-127 11l12 49l366 57l11 -10l-232 -1024q-63 -281 -145 -387q-82 -102 -219 -103q-80 0 -136 34q-58 35 -58 82zM504 1328q0 54 35.5 95t90 41 t86.5 -28.5t32 -87t-36 -96.5t-90.5 -38t-86 30t-31.5 84z" />
<glyph unicode="k" horiz-adv-x="1116" d="M188 -25l318 1334q8 37 8 58q0 11 -3 19q-7 18 -46 23l-117 14l12 47l367 50l10 -11l-360 -1509zM522 547q154 186 318 330q179 152 286 152v-1q106 0 107 -100q0 -41 -29.5 -76t-64.5 -35t-82 27q-44 28 -80 28h-2q-82 0 -291 -239q57 -207 154 -400q39 -82 63.5 -113.5 t50.5 -31.5q70 0 164 203l51 -27q-102 -289 -282 -289q-72 0 -121 46.5t-96 148.5q-95 207 -146 377z" />
<glyph unicode="l" horiz-adv-x="626" d="M238 176l280 1133q9 38 9 59q0 12 -3 18q-8 18 -47 23l-117 14l13 47l366 50l11 -11l-330 -1316q-10 -40 -10 -66q0 -45 30 -45q35 0 92.5 69.5t96.5 147.5l49 -29q-53 -125 -142.5 -210t-191.5 -85q-118 0 -118 116q0 37 12 85z" />
<glyph unicode="m" horiz-adv-x="1867" d="M201 -25l211 838q11 38 11 61q0 6 -1 12q-4 24 -39 25l-125 11l12 49l371 57l10 -10l-129 -424h6q109 199 246 316.5t275 117.5q106 0 138 -79q13 -32 12 -74q0 -64 -28 -152l-41 -129h9q113 203 248 318.5t270 115.5q82 0 125 -41t44 -107v-7q0 -64 -20 -142l-157 -536 q-12 -43 -12 -69q0 -44 32 -44q39 0 92.5 71.5t91.5 145.5l50 -29q-57 -129 -143.5 -212t-178.5 -83q-133 0 -133 115q0 37 14 86l176 602q10 34 10 61q0 25 -9 44q-19 39 -70 39q-80 0 -172 -84q-162 -150 -262 -385q-51 -119 -146 -453l-178 -25l205 775q13 51 13 87 q0 85 -75 85q-115 0 -245.5 -162t-182 -293t-147.5 -467z" />
<glyph unicode="n" horiz-adv-x="1265" d="M201 -25l215 838q12 36 12 58q0 9 -2 15q-6 24 -41 25l-127 11l12 49l375 57l10 -10l-133 -447h6q98 190 245 323.5t277 133.5t164 -88q15 -39 16 -85q0 -57 -24 -124l-159 -536q-12 -43 -12 -69q0 -44 32 -44q39 0 92 71.5t92 145.5l49 -29q-57 -129 -143 -212t-180 -83 q-94 -1 -121 57q-13 28 -13 63q0 37 15 81l176 600q9 30 9 57q0 25 -8 45q-17 44 -68 44q-78 0 -170 -86q-164 -150 -269 -390q-63 -152 -147 -446z" />
<glyph unicode="o" horiz-adv-x="1099" d="M172 334q0 158 74 328q41 98 105.5 178t175 134t247.5 54t246 -74q55 -37 88 -110.5t33 -173.5q0 -229 -129 -432q-166 -262 -463 -263q-186 0 -281.5 100.5t-95.5 258.5zM371 264q0 -217 184 -217q80 0 147.5 58.5t110.5 143.5t74 185q55 180 55 307q0 215 -170 215 q-96 0 -176 -75.5t-127 -188.5q-98 -235 -98 -428z" />
<glyph unicode="p" horiz-adv-x="1208" d="M117 -496l286 1309q8 36 8 56q0 15 -4 23q-10 17 -34 19l-127 11l12 49l371 57l10 -10l-117 -432h6q113 211 253.5 326.5t262.5 115.5q227 0 228 -274q0 -143 -82 -340q-47 -115 -114.5 -210t-184.5 -162t-261.5 -67t-217.5 45l-113 -491zM432 109q72 -61 184 -61 q1 -1 2 -1q112 0 206 86t143 207q102 248 102 415t-111 167q-82 0 -183 -98.5t-191.5 -257t-151.5 -457.5z" />
<glyph unicode="q" horiz-adv-x="1144" d="M150 200.5q0 106.5 24.5 210t81.5 214t137 199.5t204 146.5t257 57.5t213 -45l88 92h78l-365 -1530l-190 -41l203 885h-7q-113 -188 -257 -301t-273 -113q-84 0 -139 59.5t-55 166zM352 257q0 -175 99 -175q129 0 311 237q174 233 250 594q-59 43 -160.5 43t-205 -80.5 t-165.5 -197.5q-129 -246 -129 -421z" />
<glyph unicode="r" horiz-adv-x="823" d="M213 -25l188 838q8 38 8 60q0 15 -4 21q-10 15 -34 17l-127 11l12 49l352 57l10 -10l-92 -340h4q82 164 180.5 257t186.5 93q92 0 92 -83v-7q0 -45 -29.5 -86t-64.5 -41t-75 25.5t-70 25.5q-59 0 -129 -122t-125 -322q-18 -66 -55.5 -216.5t-51.5 -201.5z" />
<glyph unicode="s" horiz-adv-x="796" d="M111 170q0 43 30.5 77t75.5 34q47 0 70 -72q20 -70 71.5 -116t112.5 -46t102 41t41 113q0 127 -141 239q-180 145 -180 280.5t90 221.5t227 86q139 0 207 -51t68 -100q0 -51 -32 -77t-71 -26q-37 0 -53 41q-63 141 -164 141q-55 0 -91 -41t-36 -92q0 -106 146 -225 q102 -84 145 -155.5t43 -157.5q0 -131 -96 -220.5t-245.5 -89.5t-234.5 61.5t-85 133.5z" />
<glyph unicode="t" horiz-adv-x="698" d="M254 32q-12 27 -12 61q0 37 14 83l184 750h-170l23 78h166l26 100l199 158l25 -15l-70 -243h260l-22 -78h-256l-183 -746q-8 -30 -8 -51q0 -47 39 -47q43 0 106.5 70.5t108.5 146.5l45 -35q-68 -127 -165 -208t-212 -81q-73 1 -98 57z" />
<glyph unicode="u" horiz-adv-x="1265" d="M258 922l12 49l373 57l10 -10l-196 -756q-15 -58 -15 -98q0 -82 66 -82q117 0 237.5 147.5t190.5 309t156 465.5l182 24l-219 -835q-10 -38 -10 -63q0 -48 36 -48q61 0 189 217l49 -31q-59 -125 -148.5 -209t-193.5 -84q-112 0 -112 112q0 46 18 110l67 233h-4 q-98 -190 -245.5 -322.5t-288.5 -132.5q-158 0 -158 161q0 58 20 136l142 541q10 35 10 57q0 8 -1 14q-5 24 -40 27z" />
<glyph unicode="v" horiz-adv-x="1044" d="M244 922l12 49l362 57l11 -10l-178 -793q-7 -31 -7 -56q0 -31 11 -51q20 -36 61 -36h3q81 0 183 100q104 102 179 257t84 290q0 170 -25 256q70 43 150 43q8 0 24 -22q38 -58 38 -142q0 -90 -68 -242q-66 -150 -171 -292q-262 -354 -495 -355q-92 0 -131 67 q-23 39 -23 101q0 45 12 101l125 569q8 36 8 58q0 9 -1 15q-5 22 -37 25z" />
<glyph unicode="w" horiz-adv-x="1607" d="M250 922l10 49l367 57l10 -10l-180 -770q-10 -42 -10 -73t10 -52q20 -41 63 -41q111 0 262 229q106 162 207 537l39 149l176 13l-143 -645q-20 -91 -20 -153q0 -130 87 -130q80 0 177.5 106.5t166 266t68.5 302t-24 228.5q70 43 147 43q8 0 25 -20q38 -55 38 -138v-6 q-2 -88 -65.5 -239.5t-163.5 -296.5q-242 -352 -457 -353q-88 0 -130 54.5t-42 125t33 238.5l-4 4q-94 -188 -222 -305t-253 -117q-92 0 -135 70q-25 40 -25 103q0 47 14 106l130 559q10 37 10 59q0 10 -2 16q-6 22 -39 23z" />
<glyph unicode="x" horiz-adv-x="1056" d="M63 77q0 42 25 73.5t54.5 31.5t76.5 -24.5t74 -23.5q61 0 213 255l57 98l-74 297q-16 68 -30.5 86.5t-42.5 16.5l-154 -10l-6 49l338 102l12 -8l82 -344h4l90 139q133 213 273 213q104 0 104 -88q0 -41 -26.5 -69.5t-56 -28.5t-70.5 16q-31 16 -58 16q-72 0 -237 -294 l65 -269q35 -141 53.5 -185t47.5 -44q51 0 122 127l39 74l54 -29q-100 -209 -191 -254q-45 -25 -108.5 -25t-101.5 59.5t-70 192.5l-37 160h-4l-82 -135q-39 -61 -52.5 -84t-49.5 -71t-60 -66q-74 -55 -138 -55q-1 0 -2 -1q-62 0 -97 30q-36 30 -36 72z" />
<glyph unicode="y" horiz-adv-x="958" d="M-10 -382q0 44 33 83q35 40 69 40q38 0 74 -50q47 -63 81 -63q0 -1 1 -1q33 0 68 40q36 40 75 132t39 228q0 238 -68 716q-12 84 -25 113t-46 27l-139 -4l-7 51l344 98l17 -8q53 -281 82 -895h6q250 430 284 555q31 112 31 262v35q76 51 160 51q18 0 27.5 -41t9.5 -65.5 t-6 -48t-23 -58.5l-30 -61q-14 -27 -43 -74l-144 -240l-389 -665q-102 -164 -160 -209q-82 -61 -159 -62h-3q-76 0 -117 35q-42 35 -42 79z" />
<glyph unicode="z" horiz-adv-x="958" d="M80 36.5q0 61.5 49 110.5l719 725h-361q-35 0 -60.5 -9t-49.5 -40q-35 -43 -84 -133l-51 23q61 195 137 291h665l17 -29l-709 -723q51 -6 200.5 -61.5t208 -55.5t96.5 41t57.5 83t54.5 126l57 -14q-49 -193 -104.5 -294.5t-147.5 -101.5t-299 82q-49 18 -102 45 q-100 49 -125 49.5t-25 -36.5v-90q0 -23 -33.5 -36.5t-62.5 -13.5q-47 0 -47 61.5z" />
<glyph unicode="{" horiz-adv-x="696" d="M279 -82q-4 94 90 301q78 174 71.5 210t-23 77t-134.5 45l16 53q123 4 173 64.5t55 155t7.5 153.5t11.5 121.5t33.5 126t91 128t232.5 64.5h35l-14 -51q-170 -12 -217 -131q-25 -70 -29 -248q-6 -178 -29 -242q-45 -123 -215 -161v-13q76 -16 112 -51t30.5 -97.5 t-27 -121.5t-82.5 -199q-63 -137 -61 -198q6 -104 161 -115l-16 -51h-23q-102 0 -174.5 43t-74.5 137z" />
<glyph unicode="|" horiz-adv-x="552" d="M338 -512v2048h139v-2048h-139z" />
<glyph unicode="}" horiz-adv-x="696" d="M31 -262l14 51q170 12 217 131q23 61 29 243.5t28 246.5q45 123 216 161v13q-76 16 -112 51t-31 97.5t26.5 121.5t85.5 193q61 133 59 204q-6 104 -162 115l17 51h20q102 0 175 -43t75 -133q4 -92 -90 -305q-78 -176 -72 -211t22.5 -76t135.5 -45l-16 -53 q-174 -4 -213 -152q-12 -45 -21 -176q-6 -129 -20.5 -201.5t-69.5 -178t-281 -105.5h-32z" />
<glyph unicode="~" horiz-adv-x="1167" d="M272 412q47 100 106.5 158.5t145.5 58.5q84 0 205 -47q133 -47 178 -47t75 23.5t77 92.5l82 -51q-94 -207 -246 -207q-57 0 -195 47q-125 47 -182 47t-92 -29.5t-70 -97.5z" />
<glyph unicode="&#xa1;" horiz-adv-x="491" d="M40 -405.5q-17 38.5 9 100.5l287 880h57l-112 -890q-8 -63 -39 -96t-107 -33q-78 0 -95 38.5zM309 895q0 55 37 94t92 39q57 0 89 -32.5t32 -90t-37 -95.5t-92 -38q-57 0 -89 34t-32 89z" />
<glyph unicode="&#xa2;" d="M264 563q4 250 163 453t411 211l30 143l84 -2l-28 -141q117 -4 210 -60.5t91 -142.5q0 -45 -38 -69.5t-77 -22.5q-45 0 -55 51q-18 78 -60.5 123t-87.5 47l-202 -889q199 0 348 187l45 -39q-150 -229 -414 -234l-49 -221h-84l49 221q-115 4 -193.5 63.5t-111.5 138.5 t-31 183zM459 567q-4 -242 166 -284l196 870q-111 0 -196.5 -104.5t-124.5 -234.5t-41 -247z" />
<glyph unicode="&#xa3;" d="M90 10l47 82q141 49 283.5 139.5t79.5 364.5h-250l18 78h219q-53 158 -49 317q2 162 114 282t316 120q154 0 242 -65.5t86 -135.5q0 -49 -34 -73.5t-72 -24.5q-37 0 -50 51q-51 176 -209 176q-98 0 -179 -98.5t-47 -243.5t52.5 -212t24.5 -93h303l-18 -78h-277 q20 -276 -276 -440l2 -9h444q72 0 92 19l47 43q25 27 35 47l53 -20l-131 -236h-860z" />
<glyph unicode="&#xa4;" d="M217 209q-72 59 21 131l79 61q-94 121 -94 283t94 283l-79 61q-92 72 -20.5 131.5t130.5 -29.5l55 -79q100 94 274.5 94t274.5 -94l56 79q59 88 130.5 29t-20.5 -131l-80 -61q94 -121 94.5 -283t-94.5 -283l80 -61q92 -72 20.5 -131t-130.5 29l-56 79q-100 -94 -274 -94 t-275 94l-55 -79q-59 -88 -131 -29zM371 684q0 -152 87 -252t220 -100t220 100t87 252t-87 252t-220 100t-220 -100t-87 -252z" />
<glyph unicode="&#xa5;" d="M219 383l21 74h307l33 180h-306l21 74h266l-137 514q-20 78 -62 80l-71 4l14 59h451l-13 -59l-86 -4q-61 -2 -49 -58l123 -536h4l158 223q156 225 199 294.5t-2 71.5l-105 9l12 59h396l-13 -59l-43 -2q-76 -2 -149 -103l-371 -493h285l-19 -74h-319l-43 -180h334l-19 -74 h-331l-56 -254q-10 -53 51 -59l123 -11l-12 -59h-541l13 59l123 11q55 4 67 59l57 254h-311z" />
<glyph unicode="&#xa6;" horiz-adv-x="552" d="M338 -358v716h139v-716h-139zM338 666v716h139v-716h-139z" />
<glyph unicode="&#xa7;" d="M184 -47q0 49 33 73.5t65.5 24.5t55.5 -53q68 -162 211 -162q72 0 124 50.5t54 131.5q0 135 -74.5 210t-154.5 126q-152 100 -202 194.5t-48 205t78.5 223.5t197.5 194q12 98 102.5 187.5t240 89.5t223 -52.5t73.5 -103.5q-2 -51 -32.5 -71.5t-63.5 -20.5t-55 51 q-55 125 -172 125q-72 0 -125 -50t-56 -124q0 -143 203 -272q139 -90 200.5 -182.5t59.5 -217.5q-4 -229 -250 -450q-14 -141 -110 -228.5t-250 -87.5t-242 59.5t-86 129.5zM371 831q-4 -178 211 -329q258 -178 284 -328q135 102 138 250q2 195 -207 344q-248 172 -269 309 q-66 -35 -110.5 -99.5t-46.5 -146.5z" />
<glyph unicode="&#xa8;" horiz-adv-x="819" d="M424 1278q0 49 35 84t82 35q49 0 75.5 -30t26.5 -77t-32.5 -83t-82.5 -36q-51 0 -77.5 28t-26.5 79zM850 1278q0 49 35 84t82 35q49 0 75.5 -30t26.5 -77t-32.5 -83t-82.5 -36q-51 0 -77.5 28t-26.5 79z" />
<glyph unicode="&#xa9;" horiz-adv-x="1712" d="M258 708.5q0 307.5 218 523.5t527.5 216t527.5 -216t218 -523.5t-218 -523.5t-527.5 -216t-527.5 216t-218 523.5zM389 708.5q0 -272.5 178 -460t436.5 -187.5t436.5 187.5t178 460t-178 460t-436.5 187.5t-436.5 -187.5t-178 -460zM614 714.5q0 188.5 112 300t302 111.5 q193 0 291 -63v-201h-41q-18 98 -68.5 152.5t-175.5 54.5t-189.5 -96t-64.5 -242q0 -143 60.5 -256t212.5 -113q98 0 155.5 50.5t85.5 160.5h41l-22 -204q-86 -63 -291 -63.5t-306.5 110t-101.5 299z" />
<glyph unicode="&#xaa;" horiz-adv-x="870" d="M229 698.5q0 67.5 32 151.5t88.5 166t152.5 137t186 55t135 -26l6 16h150l-143 -493q-23 -76 8 -76q45 0 129 131l41 -25q-43 -86 -110.5 -139t-129.5 -53q-63 0 -83.5 35.5t-2.5 97.5l41 139h-6q-178 -272 -356 -272q-70 0 -104 44t-34 111.5zM391 705q0 -76 62 -76 q45 0 103 52t110 130q92 137 147 313q-20 27 -86 27q-94 0 -175 -84t-121 -186t-40 -176z" />
<glyph unicode="&#xab;" horiz-adv-x="946" d="M240 457q-23 33 8 63l346 371l41 -35l-209 -334q-20 -33 -8 -69l112 -338l-47 -31zM639 457q-23 33 8 63l346 371l41 -35l-209 -334q-20 -33 -8 -69l113 -338l-47 -31z" />
<glyph unicode="&#xac;" horiz-adv-x="1167" d="M190 678v119h992v-588h-140v469h-852z" />
<glyph unicode="&#xad;" horiz-adv-x="802" d="M240 442l28 144h502l-29 -144h-501z" />
<glyph unicode="&#xae;" horiz-adv-x="1712" d="M258 708.5q0 307.5 218 523.5t527.5 216t527.5 -216t218 -523.5t-218 -523.5t-527.5 -216t-527.5 216t-218 523.5zM389 708.5q0 -272.5 178 -460t436.5 -187.5t436.5 187.5t178 460t-178 460t-436.5 187.5t-436.5 -187.5t-178 -460zM666 326v41l63 8q41 4 41 57v563 q0 31 -8 44.5t-33 17.5l-63 8v41h368q266 0 266 -193q0 -82 -54 -131t-144 -63v-4q84 -20 114.5 -66.5t45 -128.5t55.5 -129q20 -20 72 -35v-30h-91q-119 0 -149 88q-14 43 -29.5 116.5t-23.5 92.5q-29 61 -123 61h-70v-252q0 -53 45 -57l62 -8v-41h-344zM903 741h78 q176 0 176 156q0 152 -162 152q-59 0 -75.5 -9.5t-16.5 -33.5v-265z" />
<glyph unicode="&#xaf;" horiz-adv-x="819" d="M467 1223l37 120h569l-37 -120h-569z" />
<glyph unicode="&#xb0;" horiz-adv-x="819" d="M381 1110q0 115 84 199t199 84q117 0 200.5 -84t83.5 -199q0 -117 -84 -200t-200 -83q-115 0 -198 83t-85 200zM496 1110q2 -78 51 -131t117 -53q70 0 120 53t50 131t-50.5 131t-119.5 53q-68 0 -118 -53t-50 -131z" />
<glyph unicode="&#xb1;" horiz-adv-x="1167" d="M190 0v119h992v-119h-992zM190 637v119h428v383h140v-383h424v-119h-424v-404h-140v404h-428z" />
<glyph unicode="&#xb2;" horiz-adv-x="757" d="M143 575q29 76 112 160t185 137q279 145 279 330q0 133 -109 133q-53 0 -95 -41t-66 -120q-12 -43 -49.5 -43.5t-62 20t-24.5 45.5q0 66 84 131.5t217 65.5q135 0 205 -61.5t70 -162t-76 -164t-203 -120.5q-129 -55 -200.5 -111.5t-90.5 -95.5h318q45 0 68.5 14.5 t54.5 52.5l45 -14l-74 -174h-573z" />
<glyph unicode="&#xb3;" horiz-adv-x="757" d="M193 705q0 29 23.5 54t59.5 25q33 0 52 -53q43 -131 149 -131q76 0 121 61.5t45 157.5q0 143 -125 144l-112 -15q-27 0 -27 31q0 29 10 46t20.5 17t56.5 -8t73 -8q82 0 126 59.5t44 125t-29 95t-82 29.5q-51 0 -84 -33.5t-68 -99.5q-20 -39 -53 -39q-31 0 -52.5 20.5 t-21.5 43.5q0 59 78 112.5t205 53.5t196.5 -55.5t69.5 -141.5q0 -88 -61.5 -139t-159.5 -60v-4q88 -16 127 -72.5t39 -123.5q0 -109 -87 -181.5t-263 -72.5q-123 0 -196.5 51.5t-73.5 110.5z" />
<glyph unicode="&#xb4;" horiz-adv-x="819" d="M510 1151l244 246q82 84 131 84q25 0 52.5 -30t27.5 -58q0 -49 -115 -111l-309 -172z" />
<glyph unicode="&#xb5;" horiz-adv-x="1265" d="M100 -383l316 1196q14 47 9 71.5t-40 26.5l-127 11l12 49l373 57l10 -10l-196 -756q-47 -180 51 -180q117 0 237.5 147.5t190.5 309t156 465.5l182 24l-219 -835q-29 -111 26 -111q61 0 189 217l49 -31q-59 -125 -148.5 -209t-193.5 -84q-158 0 -94 222l67 233h-4 q-96 -188 -242.5 -321.5t-277.5 -133.5q-61 0 -111 48l-16 -66q-23 -82 -2 -182q20 -102 20 -123q0 -49 -59 -88t-111 -39q-72 0 -47 92z" />
<glyph unicode="&#xb6;" horiz-adv-x="1146" d="M295 895q0 213 160.5 367.5t394.5 154.5h24l-188 -905h-22q-162 0 -265.5 108.5t-103.5 274.5zM485 -207l11 53l155 19q33 4 49.5 21.5t24.5 60.5l307 1470h344l-10 -53l-143 -18q-33 -4 -48.5 -18.5t-23.5 -57.5l-309 -1477h-357z" />
<glyph unicode="&#xb7;" horiz-adv-x="542" d="M254 506q0 57 37 96q37 37 94 37q55 0 86 -33q33 -35 33 -90t-37 -94t-94 -39q-55 0 -86 33q-33 33 -33 90z" />
<glyph unicode="&#xb8;" horiz-adv-x="819" d="M199 -451l8 50q82 -10 141.5 11t59.5 89q0 43 -31 73.5t-82 32.5l-6 19l123 176h92l-90 -123q74 -10 117.5 -66.5t29.5 -128t-78.5 -112.5t-148.5 -41t-135 20z" />
<glyph unicode="&#xb9;" horiz-adv-x="757" d="M256 557l10 47l105 8q55 2 63 47l127 592q8 37 -29 41l-112 19l6 39l307 43l6 -9l-155 -725q-8 -45 45 -47l98 -8l-10 -47h-461z" />
<glyph unicode="&#xba;" horiz-adv-x="796" d="M248 799q0 125 82 241q113 168 321 168q117 0 199 -57t82 -188.5t-80 -251.5q-117 -168 -332 -168q-131 0 -201.5 66.5t-70.5 189.5zM408 735q0 -66 30.5 -100.5t83.5 -34.5q115 0 191 168q59 133 59 244q0 139 -110.5 139t-182 -145.5t-71.5 -270.5z" />
<glyph unicode="&#xbb;" horiz-adv-x="946" d="M131 119l209 334q20 33 8 69l-112 338l47 31l243 -373q23 -33 -8 -63l-346 -371zM530 119l209 334q20 33 9 69l-113 338l47 31l244 -373q23 -33 -8 -63l-347 -371z" />
<glyph unicode="&#xbc;" horiz-adv-x="1822" d="M270 557l11 47l104 8q55 2 64 47l126 592q8 37 -28 41l-113 19l6 39l308 43l6 -9l-156 -725q-8 -45 45 -47l98 -8l-10 -47h-461zM475 12l1098 1418l69 -56l-1099 -1423zM1055 246q248 307 514 575h127l-115 -540h139l-20 -68h-133l-23 -111q-8 -45 35 -49l68 -6l-11 -47 h-395l10 47l95 6q47 4 55 49l22 111h-350zM1180 281h258l88 393h-13q-149 -149 -333 -393z" />
<glyph unicode="&#xbd;" horiz-adv-x="1822" d="M217 557l10 47l105 8q55 2 63 47l127 592q8 37 -28 41l-113 19l6 39l307 43l6 -9l-155 -725q-8 -45 45 -47l98 -8l-10 -47h-461zM369 12l1097 1418l70 -56l-1100 -1423zM989 18q29 76 113 160q82 84 184 137q279 145 279 330q0 133 -109 133q-53 0 -96 -41 q-41 -41 -66 -121q-12 -43 -49 -43t-61.5 20.5t-24.5 45.5q0 66 84 131.5t219 65.5q133 0 203 -61.5t70 -162t-76 -164t-205 -120.5q-127 -55 -199 -111q-72 -57 -90 -96h318q45 0 69 14q23 14 54 53l45 -14l-74 -174h-573z" />
<glyph unicode="&#xbe;" horiz-adv-x="1822" d="M287 705q0 29 24 53q23 27 60 26q33 0 51 -53q43 -131 149 -131q76 0 121 61.5t45 157.5q0 143 -125 144l-112 -15q-27 0 -27 31q0 29 10 45q10 18 20.5 18t57.5 -8q45 -8 72 -8q82 0 125 59q45 59 45 125t-29 97q-29 29 -82 28q-51 0 -84 -32q-33 -35 -67 -101 q-20 -39 -54 -39q-31 0 -53 21q-20 20 -20 43q0 59 77.5 112.5t204.5 53.5t197 -55.5t70 -141.5q0 -88 -61.5 -139t-160.5 -60v-4q88 -16 127 -71q39 -57 39 -125q0 -109 -88 -183q-86 -72 -262 -71q-123 0 -196.5 51.5t-73.5 110.5zM522 12l1098 1418l70 -56l-1100 -1423z M1077 246q248 307 514 575h127l-114 -540h139l-21 -68h-133l-22 -111q-8 -45 35 -49l67 -6l-10 -47h-395l10 47l94 6q47 4 55 49l23 111h-350zM1202 281h258l88 393h-12q-150 -149 -334 -393z" />
<glyph unicode="&#xbf;" horiz-adv-x="870" d="M78 -182q0 119 62.5 186.5t187.5 130.5q127 63 186 119.5t59 124.5q0 125 -131 125q-14 0 -88 -6l-12 34q88 63 186 64q100 0 164 -44t64 -132q0 -129 -213 -252q-139 -82 -207 -185.5t-68 -187.5q0 -168 121 -168t205 213q14 39 53 39t70 -24.5t31 -65.5 q0 -76 -96.5 -154.5t-248 -78.5t-238.5 71.5t-87 190.5zM526 895q0 55 37 94t92 39q57 0 89 -32.5t32 -90t-37 -95.5t-92 -38q-57 0 -89 34t-32 89z" />
<glyph unicode="&#xc0;" horiz-adv-x="1277" d="M-47 0l12 59l68 9q49 4 82 30q35 27 61 70l715 1249h145l152 -1233q8 -68 22 -90q14 -25 60 -28l78 -7l-13 -59h-504l13 59l108 11q33 4 43 20q12 16 9 60l-48 397h-458l-211 -402q-31 -70 26 -75l113 -11l-12 -59h-461zM539 625h407l-72 602h-4zM629 1716q-2 31 20 66 q23 37 45 41q41 8 133 -56l297 -202l-22 -45l-348 114q-72 23 -99 37q-24 16 -26 45z" />
<glyph unicode="&#xc1;" horiz-adv-x="1277" d="M-47 0l12 59l68 9q49 4 82 30q35 27 61 70l715 1249h145l152 -1233q8 -68 22 -90q14 -25 60 -28l78 -7l-13 -59h-504l13 59l108 11q33 4 43 20q12 16 9 60l-48 397h-458l-211 -402q-31 -70 26 -75l113 -11l-12 -59h-461zM539 625h407l-72 602h-4zM799 1565l297 202 q92 63 133 56q23 -4 45 -41q23 -35 20 -66q-2 -29 -28 -45q-25 -14 -97 -37l-348 -114z" />
<glyph unicode="&#xc2;" horiz-adv-x="1277" d="M-47 0l12 59l68 9q49 4 82 30q35 27 61 70l715 1249h145l152 -1233q8 -68 22 -90q14 -25 60 -28l78 -7l-13 -59h-504l13 59l108 11q33 4 43 20q12 16 9 60l-48 397h-458l-211 -402q-31 -70 26 -75l113 -11l-12 -59h-461zM539 625h407l-72 602h-4zM645 1520l287 227 q57 47 84 47q29 0 69 -51l187 -225l-37 -39l-184 120q-43 33 -66 33q-20 0 -74 -28l-239 -125z" />
<glyph unicode="&#xc3;" horiz-adv-x="1277" d="M-47 0l12 59l68 9q49 4 82 30q35 27 61 70l715 1249h145l152 -1233q8 -68 22 -90q14 -25 60 -28l78 -7l-13 -59h-504l13 59l108 11q33 4 43 20q12 16 9 60l-48 397h-458l-211 -402q-31 -70 26 -75l113 -11l-12 -59h-461zM539 625h407l-72 602h-4zM612 1507 q76 150 146 185q37 16 90 16q51 0 156 -39q121 -39 159 -39q37 0 63.5 18.5t71.5 75.5l41 -22q-51 -100 -98 -148q-45 -47 -98 -47q-55 0 -174 39t-170 39q-49 0 -82 -24q-31 -23 -66 -80z" />
<glyph unicode="&#xc4;" horiz-adv-x="1277" d="M-47 0l12 59l68 9q49 4 82 30q35 27 61 70l715 1249h145l152 -1233q8 -68 22 -90q14 -25 60 -28l78 -7l-13 -59h-504l13 59l108 11q33 4 43 20q12 16 9 60l-48 397h-458l-211 -402q-31 -70 26 -75l113 -11l-12 -59h-461zM539 625h407l-72 602h-4zM655 1618q0 49 35 84 t84 35q47 0 74 -29q27 -31 26.5 -78t-32.5 -82q-33 -37 -84 -37q-49 0 -76 29q-27 27 -27 78zM1081 1618q0 49 35 84t84 35q47 0 74 -29q27 -31 26.5 -78t-32.5 -82q-33 -37 -84 -37q-49 0 -76 29q-27 27 -27 78z" />
<glyph unicode="&#xc5;" horiz-adv-x="1277" d="M-47 0l12 59l68 9q49 4 83 30.5t60 69.5l690 1196q-111 43 -110 162q0 68 33.5 126t88 84.5t130.5 26.5q78 0 134 -49t56 -139t-45 -143.5t-111 -69.5l146 -1178q8 -68 22.5 -91t59.5 -27l78 -7l-13 -59h-504l13 59l108 11q33 4 44.5 20t7.5 60l-48 397h-458l-211 -402 q-31 -70 26 -75l113 -11l-12 -59h-461zM539 625h407l-72 602h-4zM872 1526q0 -53 24 -81t67 -28q45 0 75.5 39t36.5 74t6 73.5t-23.5 65.5t-58.5 27q-66 0 -96.5 -58.5t-30.5 -111.5z" />
<glyph unicode="&#xc6;" horiz-adv-x="1802" d="M-109 0l17 59l69 7q41 4 68 24q92 68 881 1137q86 115 24 119l-137 12l18 59h1168l-78 -342h-61q10 92 5 152.5t-59.5 89.5t-179.5 29h-248q-27 0 -38 -11.5t-19 -48.5l-117 -510h269q160 0 204 64q23 33 52 110h61l-94 -428h-62q6 109 -22.5 142.5t-155.5 33.5h-268 l-105 -448q-16 -72 -14 -102.5t30.5 -53t224.5 -22.5t284 53t164 235h61l-104 -360h-1070l13 59l114 13q37 2 54.5 23.5t29.5 74.5l119 528h-342q-238 -317 -387 -553q-45 -70 14 -75l121 -11l-16 -59h-488zM702 776h306l129 563h-11z" />
<glyph unicode="&#xc7;" horiz-adv-x="1353" d="M233 563q0 287 140 512q100 164 280.5 268.5t446.5 104.5q117 0 243.5 -27.5t208.5 -81.5l-73 -307h-62q8 174 -69.5 259t-264.5 85q-309 0 -483 -291q-72 -119 -109.5 -274.5t-37.5 -300.5q0 -229 111.5 -349t290.5 -120t278.5 82t195.5 258h62l-101 -326 q-172 -86 -416 -86h-14l-67 -92q74 -10 117.5 -66.5t29.5 -128t-78.5 -112.5t-148.5 -41t-135 20l8 50q82 -10 141 11t59 89q0 43 -30.5 73.5t-81.5 32.5l-6 19l104 151q-338 29 -471 283q-68 131 -68 305z" />
<glyph unicode="&#xc8;" horiz-adv-x="1220" d="M78 0l12 59l115 13q37 2 53 22q18 23 31 76l246 1081q12 53 1.5 74t-47.5 25l-122 8l14 59h1036l-78 -342h-61q10 92 4 154q-4 59 -57 88q-55 29 -181 29h-247q-27 0 -39 -11q-10 -12 -19 -49l-116 -510h268q160 0 205 64q23 33 51 110h61l-94 -428h-61q6 109 -23 142 q-29 35 -156 34h-268l-104 -448q-16 -72 -14.5 -102.5t30.5 -53t223 -22.5q197 0 285 53t164 235h61l-104 -360h-1069zM641 1716q-2 31 21 66q23 37 45 41q41 8 133 -56l297 -202l-23 -45l-348 114q-72 23 -98 37q-25 16 -27 45z" />
<glyph unicode="&#xc9;" horiz-adv-x="1220" d="M78 0l12 59l115 13q37 2 53 22q18 23 31 76l246 1081q12 53 1.5 74t-47.5 25l-122 8l14 59h1036l-78 -342h-61q10 92 4 154q-4 59 -57 88q-55 29 -181 29h-247q-27 0 -39 -11q-10 -12 -19 -49l-116 -510h268q160 0 205 64q23 33 51 110h61l-94 -428h-61q6 109 -23 142 q-29 35 -156 34h-268l-104 -448q-16 -72 -14.5 -102.5t30.5 -53t223 -22.5q197 0 285 53t164 235h61l-104 -360h-1069zM817 1565l297 202q92 63 133 56q23 -4 45 -41q23 -35 21 -66q-2 -29 -27 -45q-27 -14 -98 -37l-348 -114z" />
<glyph unicode="&#xca;" horiz-adv-x="1220" d="M78 0l12 59l115 13q37 2 53 22q18 23 31 76l246 1081q12 53 1.5 74t-47.5 25l-122 8l14 59h1036l-78 -342h-61q10 92 4 154q-4 59 -57 88q-55 29 -181 29h-247q-27 0 -39 -11q-10 -12 -19 -49l-116 -510h268q160 0 205 64q23 33 51 110h61l-94 -428h-61q6 109 -23 142 q-29 35 -156 34h-268l-104 -448q-16 -72 -14.5 -102.5t30.5 -53t223 -22.5q197 0 285 53t164 235h61l-104 -360h-1069zM629 1520l286 227q57 47 84 47q29 0 70 -51l186 -225l-36 -39l-185 120q-43 33 -65 33q-20 0 -74 -28l-240 -125z" />
<glyph unicode="&#xcb;" horiz-adv-x="1220" d="M78 0l12 59l115 13q37 2 54 23.5t30 74.5l246 1081q12 53 1.5 74t-47.5 25l-122 8l14 59h1036l-78 -342h-61q10 92 5 152.5t-59.5 89.5t-179.5 29h-247q-27 0 -38 -11.5t-20 -48.5l-116 -510h268q160 0 193.5 48t62.5 126h61l-94 -428h-61q6 109 -23 142.5t-156 33.5 h-268l-104 -448q-16 -72 -14.5 -102.5t30.5 -53t223 -22.5q197 0 285 53t164 235h61l-104 -360h-1069zM627 1618q0 49 34.5 84t83.5 35q47 0 74 -30t27 -77t-33 -83t-84 -36q-49 0 -75.5 28t-26.5 79zM1053 1618q0 49 34.5 84t83.5 35q47 0 74 -30t27 -77t-33 -83t-84 -36 q-49 0 -75.5 28t-26.5 79z" />
<glyph unicode="&#xcc;" horiz-adv-x="706" d="M82 0l12 59l113 13q37 2 55 26q20 23 31 72l246 1077q23 96 -45 103l-121 8l14 59h561l-14 -59l-113 -10q-37 -2 -55 -27t-31 -74l-246 -1077q-23 -96 46 -102l120 -9l-12 -59h-561zM373 1716q-2 31 20 66q23 37 45 41q41 8 133 -56l297 -202l-22 -45l-348 114 q-72 23 -97 37q-26 16 -28 45z" />
<glyph unicode="&#xcd;" horiz-adv-x="706" d="M82 0l12 59l113 13q37 2 55 26q20 23 31 72l246 1077q23 96 -45 103l-121 8l14 59h561l-14 -59l-113 -10q-37 -2 -55 -27t-31 -74l-246 -1077q-23 -96 46 -102l120 -9l-12 -59h-561zM500 1565l297 202q92 63 133 56q23 -4 45 -41q23 -35 20 -66q-2 -29 -28 -45 q-25 -14 -97 -37l-348 -114z" />
<glyph unicode="&#xce;" horiz-adv-x="706" d="M82 0l12 59l113 13q37 2 55 26q20 23 31 72l246 1077q23 96 -45 103l-121 8l14 59h561l-14 -59l-113 -10q-37 -2 -55 -27t-31 -74l-246 -1077q-23 -96 46 -102l120 -9l-12 -59h-561zM373 1520l286 227q57 47 84 47q29 0 70 -51l186 -225l-36 -39l-185 120q-43 33 -65 33 q-20 0 -74 -28l-240 -125z" />
<glyph unicode="&#xcf;" horiz-adv-x="706" d="M82 0l12 59l113 13q37 2 56.5 25.5t29.5 72.5l246 1077q23 96 -45 103l-121 8l14 59h561l-14 -59l-113 -10q-37 -2 -55 -27t-31 -74l-246 -1077q-23 -96 46 -102l120 -9l-12 -59h-561zM371 1618q0 49 34.5 84t81.5 35q49 0 76 -30t27 -77t-33 -83t-82 -36q-51 0 -77.5 28 t-26.5 79zM797 1618q0 49 34.5 84t81.5 35q49 0 76 -30t27 -77t-33 -83t-82 -36q-51 0 -77.5 28t-26.5 79z" />
<glyph unicode="&#xd0;" horiz-adv-x="1576" d="M96 0l13 59l114 13q37 2 55.5 24.5t28.5 73.5l119 528h-219l20 78h217l107 471q10 51 1 75t-44 26l-121 10l12 59h551q530 0 618.5 -223t88.5 -352q0 -264 -137 -471q-246 -371 -795 -371h-629zM504 176q-14 -63 28.5 -83.5t139.5 -20.5q242 0 390 82t243 237 q133 219 133 496q0 59 -6.5 110.5t-34 118t-74.5 113.5t-137 80.5t-215 33.5q-125 2 -166 -10t-53 -63l-111 -494h281l-23 -78h-276z" />
<glyph unicode="&#xd1;" horiz-adv-x="1562" d="M63 0l11 59l63 7q92 8 121 88q37 102 72 254l192 839q23 92 -45 99l-121 12l15 59h389l524 -1149h8l168 742q33 147 43 254q4 47 -16 63q-23 16 -78 23l-80 8l10 59h484l-11 -59l-63 -6q-92 -8 -121 -88q-37 -102 -72 -254l-229 -1010h-133l-569 1247h-7l-192 -839 q-33 -147 -43 -254q-4 -45 18 -64q23 -20 76 -24l80 -7l-10 -59h-484zM756 1507q76 150 145 185q37 16 90 16q51 0 156 -39q121 -39 160 -39q37 0 63.5 18.5t71.5 75.5l41 -22q-51 -100 -99 -148q-45 -47 -98 -47q-55 0 -174 39t-170 39q-49 0 -82 -24q-31 -23 -65 -80z" />
<glyph unicode="&#xd2;" horiz-adv-x="1542" d="M233 561q0 270 142 510q227 377 649 377q268 0 430 -149.5t162 -450.5q0 -256 -129 -490q-98 -178 -250 -284q-154 -104 -403 -105q-295 0 -449 160q-152 160 -152 432zM449 471q0 -209 98 -319.5t268 -110.5q332 0 490 410q96 250 96 483q0 231 -98 336 q-96 106 -271 106q-291 0 -457 -344q-126 -268 -126 -561zM772 1716q-2 31 21 66q23 37 45 41q41 8 133 -56l297 -202l-23 -45l-348 114q-72 23 -98 37q-25 16 -27 45z" />
<glyph unicode="&#xd3;" horiz-adv-x="1542" d="M233 561q0 270 142 510q227 377 649 377q268 0 430 -149.5t162 -450.5q0 -256 -129 -490q-98 -178 -250 -284q-154 -104 -403 -105q-295 0 -449 160q-152 160 -152 432zM449 471q0 -209 98 -319.5t268 -110.5q332 0 490 410q96 250 96 483q0 231 -98 336 q-96 106 -271 106q-291 0 -457 -344q-126 -268 -126 -561zM922 1565l297 202q92 63 133 56q23 -4 45 -41q23 -35 20 -66q-2 -29 -28 -45q-25 -14 -97 -37l-348 -114z" />
<glyph unicode="&#xd4;" horiz-adv-x="1542" d="M233 561q0 270 142 510q227 377 649 377q268 0 430 -149.5t162 -450.5q0 -256 -129 -490q-98 -178 -250 -284q-154 -104 -403 -105q-295 0 -449 160q-152 160 -152 432zM449 471q0 -209 98 -319.5t268 -110.5q332 0 490 410q96 250 96 483q0 231 -98 336 q-96 106 -271 106q-291 0 -457 -344q-126 -268 -126 -561zM766 1520l287 227q57 47 84 47q29 0 69 -51l187 -225l-37 -39l-185 120q-43 33 -65 33q-20 0 -74 -28l-239 -125z" />
<glyph unicode="&#xd5;" horiz-adv-x="1542" d="M233 561q0 270 142 510q227 377 649 377q268 0 430 -149.5t162 -450.5q0 -256 -129 -490q-98 -178 -250 -284q-154 -104 -403 -105q-295 0 -449 160q-152 160 -152 432zM449 471q0 -209 98 -319.5t268 -110.5q332 0 490 410q96 250 96 483q0 231 -98 336 q-96 106 -271 106q-291 0 -457 -344q-126 -268 -126 -561zM721 1507q76 150 145 185q37 16 88 16q53 0 158 -39q121 -39 158 -39q39 0 65.5 18.5t71.5 75.5l41 -22q-51 -100 -96 -148q-47 -47 -103 -47q-53 0 -172 39t-168 39q-51 0 -82 -24q-33 -23 -67 -80z" />
<glyph unicode="&#xd6;" horiz-adv-x="1542" d="M233 561q0 270 142 510q227 377 649 377q268 0 430 -149.5t162 -450.5q0 -256 -129 -490q-98 -178 -250 -284q-154 -104 -403 -105q-295 0 -449 160q-152 160 -152 432zM449 471q0 -209 98 -319.5t268 -110.5q332 0 490 410q96 250 96 483q0 231 -98 336 q-96 106 -271 106q-291 0 -457 -344q-126 -268 -126 -561zM788 1618q0 49 35 84t82 35q49 0 76 -29q27 -31 27 -78t-33 -82q-33 -37 -82 -37q-51 0 -78 29q-27 27 -27 78zM1214 1618q0 49 35 84t82 35q49 0 76 -29q27 -31 27 -78t-33 -82q-33 -37 -82 -37q-51 0 -78 29 q-27 27 -27 78z" />
<glyph unicode="&#xd7;" horiz-adv-x="1167" d="M252 135l366 377l-366 373l84 94l371 -377l368 377l86 -94l-366 -373l366 -377l-86 -90l-368 377l-371 -377z" />
<glyph unicode="&#xd8;" horiz-adv-x="1542" d="M233 553q0 279 142 518q227 377 649 377q211 0 352 -90l119 149l66 -53l-117 -147q172 -152 172 -459q0 -256 -129 -490q-98 -178 -251 -283.5t-390.5 -105.5t-380.5 99l-127 -160l-62 57l121 154q-164 153 -164 434zM449 471q0 -139 45 -231l811 1028q-94 109 -273 108 q-291 0 -457 -344q-126 -268 -126 -561zM539 162q96 -121 276 -121q332 0 490 410q96 250 96 503q0 143 -47 238z" />
<glyph unicode="&#xd9;" horiz-adv-x="1626" d="M362 524l173 723q23 94 -46 101l-120 10l14 59h561l-14 -59l-113 -8q-37 -2 -55 -27q-18 -23 -31 -76l-162 -696q-119 -510 281 -510q197 0 295 127q98 129 153 364l166 715q23 94 -45 101l-121 10l15 59h561l-14 -59l-113 -10q-37 -2 -55.5 -25t-30.5 -76l-174 -741 q-90 -385 -332 -486q-80 -33 -151 -40q-70 -10 -164 -11q-283 0 -414 133q-134 131 -64 422zM741 1716q-2 31 21 66q23 37 45 41q41 8 133 -56l297 -202l-23 -45l-348 114q-72 23 -96 37q-27 16 -29 45z" />
<glyph unicode="&#xda;" horiz-adv-x="1626" d="M362 524l173 723q23 94 -46 101l-120 10l14 59h561l-14 -59l-113 -8q-37 -2 -55 -27q-18 -23 -31 -76l-162 -696q-119 -510 281 -510q197 0 295 127q98 129 153 364l166 715q23 94 -45 101l-121 10l15 59h561l-14 -59l-113 -10q-37 -2 -55.5 -25t-30.5 -76l-174 -741 q-90 -385 -332 -486q-80 -33 -151 -40q-70 -10 -164 -11q-283 0 -414 133q-134 131 -64 422zM1044 1565l297 202q92 63 134 56q23 -4 45 -41q23 -35 20 -66q-2 -29 -29 -45q-25 -14 -96 -37l-348 -114z" />
<glyph unicode="&#xdb;" horiz-adv-x="1626" d="M362 524l173 723q23 94 -46 101l-120 10l14 59h561l-14 -59l-113 -8q-37 -2 -55 -27q-18 -23 -31 -76l-162 -696q-119 -510 281 -510q197 0 295 127q98 129 153 364l166 715q23 94 -45 101l-121 10l15 59h561l-14 -59l-113 -10q-37 -2 -55.5 -25t-30.5 -76l-174 -741 q-90 -385 -332 -486q-80 -33 -151 -40q-70 -10 -164 -11q-283 0 -414 133q-134 131 -64 422zM827 1520l287 227q57 47 84 47q29 0 70 -51l186 -225l-37 -39l-184 120q-43 33 -66 33q-20 0 -73 -28l-240 -125z" />
<glyph unicode="&#xdc;" horiz-adv-x="1626" d="M362 524l173 723q23 94 -46 101l-120 10l14 59h561l-14 -59l-113 -8q-37 -2 -55 -27q-18 -23 -31 -76l-162 -696q-119 -510 281 -510q197 0 295 127q98 129 153 364l166 715q23 94 -45 101l-121 10l15 59h561l-14 -59l-113 -10q-37 -2 -55.5 -25t-30.5 -76l-174 -741 q-90 -385 -332 -486q-80 -33 -151 -40q-70 -10 -164 -11q-283 0 -414 133q-134 131 -64 422zM840 1618q0 49 34.5 84t83.5 35q47 0 74 -29q27 -31 27 -78t-33 -82q-33 -37 -84 -37q-49 0 -76 29q-26 27 -26 78zM1266 1618q0 49 34.5 84t83.5 35q47 0 74 -29q27 -31 27 -78 t-33 -82q-33 -37 -84 -37q-49 0 -76 29q-26 27 -26 78z" />
<glyph unicode="&#xdd;" horiz-adv-x="1210" d="M268 1358l13 59h510l-13 -59l-112 -10q-51 -6 -39 -60l186 -629h6q307 416 432 631q31 57 -30 60l-107 8l12 59h469l-12 -59q-86 -6 -123 -24.5t-92 -80.5q-190 -217 -471 -624q-41 -55 -57 -123l-78 -346q-10 -45 0 -65.5t47 -22.5l156 -13l-13 -59h-635l13 59l147 15 q39 4 55 24q18 18 29 62l78 344q14 59 0 108q-158 528 -188 621q-33 90 -58 102q-27 15 -125 23zM940 1565l297 202q92 63 133 56q23 -4 45 -41q23 -35 21 -66q-2 -29 -27 -45q-27 -14 -98 -37l-348 -114z" />
<glyph unicode="&#xde;" horiz-adv-x="1236" d="M82 0l12 59l113 13q37 4 55.5 25.5t30.5 72.5l246 1077q23 92 -45 99l-121 12l14 59h561l-14 -59l-113 -10q-37 -2 -55 -25t-31 -76l-28 -127h151q213 0 345 -79.5t130 -260.5q-2 -102 -46 -179t-106.5 -119t-174 -75.5t-285.5 -33.5h-186l-46 -203q-25 -94 50 -98 l120 -13l-12 -59h-565zM569 514q-4 -20 1 -45t135 -25q182 0 297.5 91.5t115.5 271.5q0 113 -68.5 177.5t-185.5 64.5q-115 0 -147.5 -15.5t-42.5 -58.5z" />
<glyph unicode="&#xdf;" horiz-adv-x="1181" d="M-147 -381q0 43 28.5 75t57.5 32q31 0 61 -45q66 -100 111 -101q37 0 47 62l252 1284h-181l23 78h178l14 45q49 168 140.5 276.5t194 152.5t231.5 42q168 0 260 -77t92 -210t-150 -268q-154 2 -217 -50.5t-63 -121.5q0 -63 31 -105l55 -78q25 -35 49 -59 q117 -147 117 -272q0 -127 -88 -215.5t-240 -88.5q-90 0 -161.5 37t-74 78t25.5 68.5t59 27.5q33 0 55 -34q68 -100 155 -101q49 0 84 37t35 102q0 102 -129 256t-129 275t85 199.5t210 85.5q119 100 119 245q0 96 -58.5 146.5t-127.5 50.5q-158 0 -253.5 -160t-166.5 -479 l-168 -746q-70 -307 -150 -433t-227 -126q-74 0 -129 35t-57 80z" />
<glyph unicode="&#xe0;" horiz-adv-x="1148" d="M135 209q0 94 29 197q27 104 86 214.5t141 200.5t203 150q123 57 237 57q113 0 175 -43l10 27h172l-217 -817q-31 -113 20 -113q39 0 92.5 71.5t92.5 145.5l49 -29q-57 -129 -144 -213q-88 -82 -196 -82q-158 0 -90 230l69 233h-4q-264 -463 -528 -463q-98 0 -148 70 q-49 72 -49 164zM338 225q0 -143 90 -143q133 0 338 311q147 221 219 518q-49 45 -125 45q-113 0 -217 -82q-102 -82 -166 -198q-63 -119 -100 -242q-39 -121 -39 -209zM557 1393q0 29 29 57q27 31 51 31q49 0 131 -84l244 -246l-31 -41l-309 172q-115 62 -115 111z" />
<glyph unicode="&#xe1;" horiz-adv-x="1148" d="M135 209q0 94 29 197q27 104 86 214.5t141 200.5t203 150q123 57 237 57q113 0 175 -43l10 27h172l-217 -817q-31 -113 20 -113q39 0 92.5 71.5t92.5 145.5l49 -29q-57 -129 -144 -213q-88 -82 -196 -82q-158 0 -90 230l69 233h-4q-264 -463 -528 -463q-98 0 -148 70 q-49 72 -49 164zM338 225q0 -143 90 -143q133 0 338 311q147 221 219 518q-49 45 -125 45q-113 0 -217 -82q-102 -82 -166 -198q-63 -119 -100 -242q-39 -121 -39 -209zM758 1151l243 246q82 84 132 84q25 0 51 -31q29 -29 28 -57q0 -49 -114 -111l-310 -172z" />
<glyph unicode="&#xe2;" horiz-adv-x="1148" d="M135 209q0 94 29 197q27 104 86 214.5t141 200.5t203 150q123 57 237 57q113 0 175 -43l10 27h172l-217 -817q-31 -113 20 -113q39 0 92.5 71.5t92.5 145.5l49 -29q-57 -129 -144 -213q-88 -82 -196 -82q-158 0 -90 230l69 233h-4q-264 -463 -528 -463q-98 0 -148 70 q-49 72 -49 164zM338 225q0 -143 90 -143q133 0 338 311q147 221 219 518q-49 45 -125 45q-113 0 -217 -82q-102 -82 -166 -198q-63 -119 -100 -242q-39 -121 -39 -209zM571 1161l283 264q57 49 82 49.5t61 -49.5l183 -264l-47 -43l-175 154q-39 31 -57 31t-65 -31 l-236 -154z" />
<glyph unicode="&#xe3;" horiz-adv-x="1148" d="M135 209q0 94 29 197q27 104 86 214.5t141 200.5t203 150q123 57 237 57q113 0 175 -43l10 27h172l-217 -817q-31 -113 20 -113q39 0 92.5 71.5t92.5 145.5l49 -29q-57 -129 -144 -213q-88 -82 -196 -82q-158 0 -90 230l69 233h-4q-264 -463 -528 -463q-98 0 -148 70 q-49 72 -49 164zM338 225q0 -143 90 -143q133 0 338 311q147 221 219 518q-49 45 -125 45q-113 0 -217 -82q-102 -82 -166 -198q-63 -119 -100 -242q-39 -121 -39 -209zM469 1180q76 150 145 184q37 16 91 16q51 0 155 -39q121 -39 160 -38q37 0 63.5 18t71.5 76l41 -23 q-51 -100 -98 -147q-45 -47 -99 -47q-55 0 -173.5 38.5t-170.5 38.5q-49 0 -82 -24q-31 -23 -65 -80z" />
<glyph unicode="&#xe4;" horiz-adv-x="1148" d="M135 209q0 94 29 197q27 104 86 214.5t141 200.5t203 150q123 57 237 57q113 0 175 -43l10 27h172l-217 -817q-31 -113 20 -113q39 0 92.5 71.5t92.5 145.5l49 -29q-57 -129 -144 -213q-88 -82 -196 -82q-158 0 -90 230l69 233h-4q-264 -463 -528 -463q-98 0 -148 70 q-49 72 -49 164zM338 225q0 -143 90 -143q133 0 338 311q147 221 219 518q-49 45 -125 45q-113 0 -217 -82q-102 -82 -166 -198q-63 -119 -100 -242q-39 -121 -39 -209zM541 1278q0 49 34.5 84t83.5 35q47 0 74 -29q27 -31 27 -78t-33 -82q-33 -37 -84 -37q-49 0 -76 29 q-26 27 -26 78zM967 1278q0 49 34.5 84t83.5 35q47 0 74 -29q27 -31 27 -78t-33 -82q-33 -37 -84 -37q-49 0 -76 29q-26 27 -26 78z" />
<glyph unicode="&#xe5;" horiz-adv-x="1148" d="M135 209q0 94 29 197q27 104 86 214.5t141 200.5t203 150q123 57 237 57q113 0 175 -43l10 27h172l-217 -817q-31 -113 20 -113q39 0 92.5 71.5t92.5 145.5l49 -29q-57 -129 -144 -213q-88 -82 -196 -82q-158 0 -90 230l69 233h-4q-264 -463 -528 -463q-98 0 -148 70 q-49 72 -49 164zM338 225q0 -143 90 -143q133 0 338 311q147 221 219 518q-49 45 -125 45q-113 0 -217 -82q-102 -82 -166 -198q-63 -119 -100 -242q-39 -121 -39 -209zM618 1294.5q0 75.5 46 151.5q23 41 76 67.5t130.5 26.5t133.5 -49q57 -49 57 -139q0 -88 -57 -156 q-57 -70 -189 -70q-86 0 -141 45q-56 48 -56 123.5zM735 1302.5q0 -53.5 23 -81.5q25 -27 69 -27q43 0 74 39t37 73.5t6 73.5t-22 66q-25 27 -60 27q-66 0 -96 -60q-31 -57 -31 -110.5z" />
<glyph unicode="&#xe6;" horiz-adv-x="1595" d="M141 207q0 90 27 188.5t85 206t139 196.5t205 147.5t265 58.5q80 0 160 -35l72 84h75l-51 -152l4 -4q145 131 322 131q125 0 192.5 -59.5t67.5 -151.5t-90 -182q-160 -152 -576 -242l-2 -33q0 -285 185 -284q72 0 141.5 42t108 86t85.5 107l48 -43q-180 -293 -469 -293 q-106 0 -193 60q-106 72 -106 276q0 6 8 88h-4q-61 -104 -130 -191t-172.5 -160t-200.5 -73t-146.5 71t-49.5 161zM344 214q0 -132 84 -132q72 0 167 93t183 235q139 223 207 483q-49 39 -131 39q-143 0 -266 -132t-183.5 -293t-60.5 -293zM1042 463q242 51 355.5 152.5 t113.5 218.5q0 55 -31.5 88.5t-86.5 33.5q-119 0 -221.5 -150t-129.5 -343z" />
<glyph unicode="&#xe7;" horiz-adv-x="903" d="M166 304q0 171 70.5 335t210 276.5t313.5 112.5q115 0 189.5 -52t74.5 -130q0 -47 -45 -81t-86 -34q-53 0 -59 62q-16 164 -123 163q-90 0 -171 -98t-126 -238.5t-45 -270.5t38.5 -201.5t141.5 -71.5q152 0 328 239l49 -39q-150 -252 -379 -292l-78 -107 q74 -10 118 -66.5t29.5 -128t-79 -112.5t-148.5 -41t-135 20l8 50q82 -10 141.5 11t59.5 89q0 43 -31 73.5t-82 32.5l-6 19l107 151q-121 2 -203 80t-82 249z" />
<glyph unicode="&#xe8;" horiz-adv-x="927" d="M164 311q0 274 170 484q188 233 448 233q121 0 189 -59q66 -59 65.5 -157.5t-86.5 -184.5q-160 -147 -581 -234q-2 -14 -2 -33q0 -285 186 -284q139 0 274 153q27 33 64 80l47 -41q-180 -293 -469 -293q-104 0 -195 60q-110 71 -110 276zM373 463q244 51 356 151 q115 102 115 222q0 53 -33 86q-33 35 -86 34q-119 0 -221 -149q-104 -151 -131 -344zM395 1393q0 29 27 57q29 31 53 31q49 0 131 -84l244 -246l-31 -41l-309 172q-115 62 -115 111z" />
<glyph unicode="&#xe9;" horiz-adv-x="927" d="M164 311q0 274 170 484q188 233 448 233q121 0 189 -59q66 -59 65.5 -157.5t-86.5 -184.5q-160 -147 -581 -234q-2 -14 -2 -33q0 -285 186 -284q139 0 274 153q27 33 64 80l47 -41q-180 -293 -469 -293q-104 0 -195 60q-110 71 -110 276zM373 463q244 51 356 151 q115 102 115 222q0 53 -33 86q-33 35 -86 34q-119 0 -221 -149q-104 -151 -131 -344zM606 1151l244 246q82 84 131 84q25 0 51 -31q29 -29 29 -57q0 -49 -115 -111l-309 -172z" />
<glyph unicode="&#xea;" horiz-adv-x="927" d="M164 311q0 274 170 484q188 233 448 233q121 0 189 -59q66 -59 65.5 -157.5t-86.5 -184.5q-160 -147 -581 -234q-2 -14 -2 -33q0 -285 186 -284q139 0 274 153q27 33 64 80l47 -41q-180 -293 -469 -293q-104 0 -195 60q-110 71 -110 276zM373 463q244 51 356 151 q115 102 115 222q0 53 -33 86q-33 35 -86 34q-119 0 -221 -149q-104 -151 -131 -344zM436 1161l283 264q57 49 81.5 49.5t61.5 -49.5l182 -264l-47 -43l-174 154q-39 31 -57 31t-66 -31l-235 -154z" />
<glyph unicode="&#xeb;" horiz-adv-x="927" d="M164 311q0 274 170 484q188 233 448 233q121 0 187.5 -59.5t66.5 -157.5t-86 -184q-160 -147 -581 -234q-2 -14 -2 -33q0 -285 186 -284q139 0 220 93t118 140l47 -41q-180 -293 -469 -293q-104 0 -204.5 65.5t-100.5 270.5zM373 463q244 51 357.5 152.5t113.5 220.5 q0 53 -33 86.5t-86 33.5q-119 0 -222 -150t-130 -343zM430 1278q0 49 35 84t84 35q47 0 73.5 -30t26.5 -77t-32.5 -83t-84.5 -36q-49 0 -75.5 28t-26.5 79zM856 1278q0 49 35 84t84 35q47 0 73.5 -30t26.5 -77t-32.5 -83t-84.5 -36q-49 0 -75.5 28t-26.5 79z" />
<glyph unicode="&#xec;" horiz-adv-x="649" d="M246 176l172 641q14 53 6 72q-8 20 -49 22l-117 11l12 49l373 57l10 -10l-223 -823q-31 -113 21 -113q39 0 92 71.5t92 145.5l49 -29q-57 -129 -143 -213q-84 -82 -176 -82q-172 0 -119 201zM266 1393q0 29 29 57q27 31 51 31q49 0 131 -84l244 -246l-31 -41l-309 172 q-115 62 -115 111z" />
<glyph unicode="&#xed;" horiz-adv-x="649" d="M246 176l172 641q14 53 6 72q-8 20 -49 22l-117 11l12 49l373 57l10 -10l-223 -823q-31 -113 21 -113q39 0 92 71.5t92 145.5l49 -29q-57 -129 -143 -213q-84 -82 -176 -82q-172 0 -119 201zM395 1151l244 246q82 84 131 84q25 0 53 -31q27 -29 27 -57q0 -49 -115 -111 l-309 -172z" />
<glyph unicode="&#xee;" horiz-adv-x="649" d="M246 176l172 641q14 53 6 72q-8 20 -49 22l-117 11l12 49l373 57l10 -10l-223 -823q-31 -113 21 -113q39 0 92 71.5t92 145.5l49 -29q-57 -129 -143 -213q-84 -82 -176 -82q-172 0 -119 201zM248 1161l282 264q57 49 82 49.5t62 -49.5l182 -264l-47 -43l-174 154 q-39 31 -57.5 31t-65.5 -31l-236 -154z" />
<glyph unicode="&#xef;" horiz-adv-x="649" d="M242 1278q0 49 34.5 84t83.5 35q47 0 74 -30t27 -77t-33 -83t-84 -36q-49 0 -75.5 28t-26.5 79zM246 176l172 641q14 53 6 72.5t-49 21.5l-117 11l12 49l373 57l10 -10l-223 -823q-31 -113 21 -113q39 0 92 71.5t92 145.5l49 -29q-57 -129 -142 -212t-177 -83 q-172 0 -119 201zM668 1278q0 49 34.5 84t83.5 35q47 0 74 -30t27 -77t-33 -83t-84 -36q-49 0 -75.5 28t-26.5 79z" />
<glyph unicode="&#xf0;" horiz-adv-x="1099" d="M168 331.5q0 155.5 60.5 291t126 215.5t179 135t252.5 55q25 0 72 -14v6q-33 78 -129 197l-274 -123l-47 65l270 121q-96 113 -189 193v12l78 35q106 -74 226 -189l262 117l47 -66l-250 -110q184 -193 235.5 -335t51.5 -242.5t-17.5 -185.5t-62.5 -181.5t-111.5 -173 t-176 -128t-243.5 -51.5q-176 0 -268 100.5t-92 256zM367 250q0 -96 48 -149.5t134 -53.5q84 0 151.5 58.5t110.5 144.5t86 226t43 261q0 119 -40 169t-134 50q-92 0 -173 -75.5t-128 -189t-72.5 -228.5t-25.5 -213z" />
<glyph unicode="&#xf1;" horiz-adv-x="1265" d="M201 -25l215 838q16 49 10 72q-6 25 -41 26l-127 11l12 49l375 57l10 -10l-133 -447h6q98 190 246 324q145 133 275 133q131 0 165.5 -88t-8.5 -209l-159 -536q-31 -113 20 -113q39 0 92 71.5t92 145.5l49 -29q-57 -129 -143 -213q-86 -82 -180 -82t-121 57.5t2 143.5 l176 600q18 59 2 103q-18 43 -69 43q-78 0 -170 -86q-164 -150 -269 -390q-63 -152 -147 -446zM489 1180q76 150 146 184q37 16 90 16q51 0 156 -39q121 -39 159 -38q37 0 63.5 18t72.5 76l41 -23q-51 -100 -99 -147q-45 -47 -98 -47q-55 0 -174 38.5t-170 38.5 q-49 0 -82 -24q-31 -23 -66 -80z" />
<glyph unicode="&#xf2;" horiz-adv-x="1099" d="M172 334q0 158 74 328q41 98 106 178q63 80 174 135q111 53 248 53t246 -74q55 -37 88 -110.5t33 -173.5q0 -229 -129 -432q-166 -262 -463 -263q-186 0 -283 101q-94 100 -94 258zM371 264q0 -217 184 -217q80 0 147 59q68 57 111 144q43 84 74 184q55 180 55 307 q0 215 -170 215q-96 0 -176 -75.5t-127 -188.5q-98 -235 -98 -428zM481 1393q0 29 27 57q29 31 53 31q49 0 131 -84l244 -246l-31 -41l-309 172q-115 62 -115 111z" />
<glyph unicode="&#xf3;" horiz-adv-x="1099" d="M172 334q0 158 74 328q41 98 106 178q63 80 174 135q111 53 248 53t246 -74q55 -37 88 -110.5t33 -173.5q0 -229 -129 -432q-166 -262 -463 -263q-186 0 -283 101q-94 100 -94 258zM371 264q0 -217 184 -217q80 0 147 59q68 57 111 144q43 84 74 184q55 180 55 307 q0 215 -170 215q-96 0 -176 -75.5t-127 -188.5q-98 -235 -98 -428zM651 1151l244 246q82 84 131 84q25 0 51 -31q29 -29 29 -57q0 -49 -115 -111l-309 -172z" />
<glyph unicode="&#xf4;" horiz-adv-x="1099" d="M172 334q0 158 74 328q41 98 106 178q63 80 174 135q111 53 248 53t246 -74q55 -37 88 -110.5t33 -173.5q0 -229 -129 -432q-166 -262 -463 -263q-186 0 -283 101q-94 100 -94 258zM371 264q0 -217 184 -217q80 0 147 59q68 57 111 144q43 84 74 184q55 180 55 307 q0 215 -170 215q-96 0 -176 -75.5t-127 -188.5q-98 -235 -98 -428zM489 1161l283 264q57 49 82 49.5t61 -49.5l183 -264l-47 -43l-174 154q-39 31 -57.5 31t-65.5 -31l-236 -154z" />
<glyph unicode="&#xf5;" horiz-adv-x="1099" d="M172 334q0 158 74 328q41 98 106 178q63 80 174 135q111 53 248 53t246 -74q55 -37 88 -110.5t33 -173.5q0 -229 -129 -432q-166 -262 -463 -263q-186 0 -283 101q-94 100 -94 258zM371 264q0 -217 184 -217q80 0 147 59q68 57 111 144q43 84 74 184q55 180 55 307 q0 215 -170 215q-96 0 -176 -75.5t-127 -188.5q-98 -235 -98 -428zM420 1180q76 150 145 184q37 16 90 16q51 0 156 -39q121 -39 160 -38q37 0 63.5 18t71.5 76l41 -23q-51 -100 -98 -147q-45 -47 -99 -47q-55 0 -174 38.5t-170 38.5q-49 0 -82 -24q-31 -23 -65 -80z" />
<glyph unicode="&#xf6;" horiz-adv-x="1099" d="M172 334q0 158 74 328q41 98 106 178q63 80 174 135q111 53 248 53t246 -74q55 -37 88 -110.5t33 -173.5q0 -229 -129 -432q-166 -262 -463 -263q-186 0 -283 101q-94 100 -94 258zM371 264q0 -217 184 -217q80 0 147 59q68 57 111 144q43 84 74 184q55 180 55 307 q0 215 -170 215q-96 0 -176 -75.5t-127 -188.5q-98 -235 -98 -428zM516 1278q0 49 35 84t84 35q47 0 74 -29q27 -31 26.5 -78t-33.5 -82q-33 -37 -84 -37q-49 0 -75 29q-27 27 -27 78zM942 1278q0 49 35 84t84 35q47 0 74 -29q27 -31 26.5 -78t-33.5 -82q-33 -37 -84 -37 q-49 0 -75 29q-27 27 -27 78z" />
<glyph unicode="&#xf7;" horiz-adv-x="1167" d="M190 453v118h992v-118h-992zM563 174q0 51 35 86q37 35 86 35q51 0 86 -35q33 -35 33 -84q0 -51 -33 -86q-35 -37 -86 -37q-49 0 -86 35q-35 35 -35 86zM563 850q0 51 35 86q37 35 86 35q51 0 86 -35q33 -35 33 -84q0 -51 -33 -86q-35 -37 -86 -37q-49 0 -86 35 q-35 35 -35 86z" />
<glyph unicode="&#xf8;" horiz-adv-x="1099" d="M172 334q0 158 57.5 292t122 214t175 134t239.5 54q127 0 211 -47l82 102l59 -51l-78 -98q100 -90 101 -264q0 -229 -129 -432q-166 -262 -463 -263q-137 0 -223 58l-90 -113l-56 55l84 105q-92 98 -92 254zM360 307q0 -49 7 -98l544 688q-43 59 -141 59 q-96 0 -179 -75.5t-131 -188t-74 -225.5t-26 -160zM397 123q45 -76 144 -76q96 0 166.5 58.5t113.5 143.5t87 228.5t44 263.5q0 29 -8 70z" />
<glyph unicode="&#xf9;" horiz-adv-x="1265" d="M258 922l12 49l373 57l10 -10l-196 -756q-47 -180 51 -180q117 0 237.5 147.5t190.5 309t156 465.5l182 24l-219 -835q-29 -111 26 -111q61 0 189 217l49 -31q-59 -125 -148 -209q-90 -84 -194 -84q-158 0 -94 222l67 233h-4q-98 -190 -246 -324q-147 -131 -288 -131 q-215 0 -138 297l142 541q14 47 10 72q-6 25 -41 26zM512 1393q0 29 29 57q27 31 51 31q49 0 131 -84l244 -246l-31 -41l-309 172q-115 62 -115 111z" />
<glyph unicode="&#xfa;" horiz-adv-x="1265" d="M258 922l12 49l373 57l10 -10l-196 -756q-47 -180 51 -180q117 0 237.5 147.5t190.5 309t156 465.5l182 24l-219 -835q-29 -111 26 -111q61 0 189 217l49 -31q-59 -125 -148 -209q-90 -84 -194 -84q-158 0 -94 222l67 233h-4q-98 -190 -246 -324q-147 -131 -288 -131 q-215 0 -138 297l142 541q14 47 10 72q-6 25 -41 26zM743 1151l244 246q82 84 131 84q25 0 53 -31q27 -29 27 -57q0 -49 -115 -111l-309 -172z" />
<glyph unicode="&#xfb;" horiz-adv-x="1265" d="M258 922l12 49l373 57l10 -10l-196 -756q-47 -180 51 -180q117 0 237.5 147.5t190.5 309t156 465.5l182 24l-219 -835q-29 -111 26 -111q61 0 189 217l49 -31q-59 -125 -148 -209q-90 -84 -194 -84q-158 0 -94 222l67 233h-4q-98 -190 -246 -324q-147 -131 -288 -131 q-215 0 -138 297l142 541q14 47 10 72q-6 25 -41 26zM555 1161l283 264q57 49 81.5 49.5t61.5 -49.5l182 -264l-47 -43l-174 154q-39 31 -57.5 31t-65.5 -31l-235 -154z" />
<glyph unicode="&#xfc;" horiz-adv-x="1265" d="M258 922l12 49l373 57l10 -10l-196 -756q-47 -180 51 -180q117 0 237.5 147.5t190.5 309t156 465.5l182 24l-219 -835q-29 -111 26 -111q61 0 189 217l49 -31q-59 -125 -148 -209q-90 -84 -194 -84q-158 0 -94 222l67 233h-4q-98 -190 -246 -324q-147 -131 -288 -131 q-215 0 -138 297l142 541q14 47 10 72q-6 25 -41 26zM573 1278q0 49 35 84t84 35q47 0 74 -29q27 -31 27 -78t-33 -82q-33 -37 -84 -37q-49 0 -76 29q-27 27 -27 78zM999 1278q0 49 35 84t84 35q47 0 74 -29q27 -31 27 -78t-33 -82q-33 -37 -84 -37q-49 0 -76 29 q-27 27 -27 78z" />
<glyph unicode="&#xfd;" horiz-adv-x="958" d="M-10 -381q0 43 33 82q74 84 143 -10q47 -63 80 -64q35 0 69 41q37 39 76 131t39 228q0 238 -68 716q-12 84 -26 113q-12 29 -45 27l-139 -4l-7 51l344 98l17 -8q53 -281 82 -895h6q250 430 284.5 555t30.5 297q76 51 160 51q18 0 29 -41q8 -41 8 -65.5t-6 -49.5 q-6 -23 -23 -57l-30 -61q-14 -27 -43 -74l-144 -240l-389 -665q-102 -164 -160 -209q-82 -61 -159.5 -61.5t-118.5 34.5q-43 35 -43 80zM621 1151l243 246q82 84 131 84q25 0 54 -31q27 -29 26 -57q0 -49 -114 -111l-310 -172z" />
<glyph unicode="&#xfe;" horiz-adv-x="1196" d="M104 -496l375 1715q12 47 5 71.5t-42 26.5l-127 10l13 49l370 58l11 -11l-199 -837h6q113 211 253 326.5t263 115.5q227 0 228 -274q0 -143 -65 -299t-132.5 -251t-184 -162t-260.5 -67q-145 0 -219 45l-112 -491zM420 109q72 -61 184.5 -61.5t206.5 85.5t170 270.5 t76 350.5q0 168 -111 168q-82 0 -183 -98.5t-192 -258.5q-90 -157 -151 -456z" />
<glyph unicode="&#xff;" horiz-adv-x="958" d="M-10 -381q0 43 33 82q74 84 143 -10q47 -63 80 -64q35 0 69 41q37 39 76 131t39 228q0 238 -68 716q-12 84 -26 113q-12 29 -45 27l-139 -4l-7 51l344 98l17 -8q53 -281 82 -895h6q250 430 284.5 555t30.5 297q76 51 160 51q18 0 29 -41q8 -41 8 -65.5t-6 -49.5 q-6 -23 -23 -57l-30 -61q-14 -27 -43 -74l-144 -240l-389 -665q-102 -164 -160 -209q-82 -61 -159.5 -61.5t-118.5 34.5q-43 35 -43 80zM494 1278q0 49 34.5 84t81.5 35q49 0 76 -29q27 -31 27 -78t-33 -82q-33 -37 -82 -37q-51 0 -78 29q-26 27 -26 78zM920 1278 q0 49 34.5 84t81.5 35q49 0 76 -29q27 -31 27 -78t-33 -82q-33 -37 -82 -37q-51 0 -78 29q-26 27 -26 78z" />
<glyph unicode="&#x152;" horiz-adv-x="2088" d="M233 600q0 223 123 420q125 195 316.5 294t515.5 103h1098l-78 -342h-62q10 92 5 152.5t-59 89.5t-179 29h-248q-27 0 -38 -11.5t-19 -48.5l-117 -510h268q160 0 194 48t62 126h62l-95 -428h-61q6 109 -22.5 142.5t-155.5 33.5h-268l-105 -448q-16 -72 -14 -102.5 t30.5 -53t223.5 -22.5q197 0 284.5 53t163.5 235h62l-105 -360h-1048q-369 0 -551.5 146.5t-182.5 453.5zM455 555q0 -248 135 -365.5t354 -117.5q109 0 155 24.5t66 114.5l230 1008q18 80 -17 103.5t-186 23.5q-150 0 -274.5 -46.5t-208.5 -124t-169 -225t-85 -395.5z" />
<glyph unicode="&#x153;" horiz-adv-x="1650" d="M172 334q0 158 74 328q41 98 105.5 178t175 134t228 54t210 -51t129.5 -164q184 215 411 215q121 0 187.5 -59.5t66.5 -157.5t-86 -184q-160 -147 -581 -234q-2 -14 -2 -33q0 -285 186 -284q139 0 272 153q29 33 66 80l47 -41q-180 -293 -469 -293q-78 0 -152.5 41 t-107.5 146q-162 -186 -387 -187q-184 0 -278.5 100.5t-94.5 258.5zM371 264q0 -217 184 -217q80 0 147.5 58.5t110.5 143.5t74 185q55 180 55 307q0 215 -170 215q-96 0 -176 -75.5t-127 -188.5q-98 -235 -98 -428zM1096 463q244 51 357.5 152.5t113.5 220.5q0 53 -33 86.5 t-86 33.5q-119 0 -222 -150t-130 -343z" />
<glyph unicode="&#x178;" horiz-adv-x="1210" d="M268 1358l13 59h510l-13 -59l-112 -10q-51 -6 -39 -60l186 -629h6q307 416 432 631q31 57 -30 60l-107 8l12 59h469l-12 -59q-86 -6 -123 -24.5t-92 -80.5q-190 -217 -471 -624q-41 -55 -57 -123l-78 -346q-10 -45 0 -65.5t47 -22.5l156 -13l-13 -59h-635l13 59l147 15 q39 4 55 24q18 18 29 62l78 344q14 59 0 108q-158 528 -188 621q-33 90 -58 102q-27 15 -125 23zM623 1618q0 49 34.5 84t83.5 35q47 0 74 -29q27 -31 27 -78t-33 -82q-33 -37 -84 -37q-49 0 -76 29q-26 27 -26 78zM1049 1618q0 49 34.5 84t83.5 35q47 0 74 -29 q27 -31 27 -78t-33 -82q-33 -37 -84 -37q-49 0 -76 29q-26 27 -26 78z" />
<glyph unicode="&#x2c6;" horiz-adv-x="819" d="M455 1161l282 264q57 49 82 49.5t62 -49.5l182 -264l-47 -43l-174 154q-39 31 -57.5 31t-65.5 -31l-236 -154z" />
<glyph unicode="&#x2dc;" horiz-adv-x="819" d="M352 1180q76 150 129.5 175t104.5 25q53 0 157 -39q121 -39 158 -38q39 0 65.5 18t71.5 76l41 -23q-51 -100 -97 -147t-101 -47q-53 0 -172 38.5t-168 38.5q-51 0 -83 -23.5t-67 -80.5z" />
<glyph unicode="&#x2000;" horiz-adv-x="911" />
<glyph unicode="&#x2001;" horiz-adv-x="1823" />
<glyph unicode="&#x2002;" horiz-adv-x="911" />
<glyph unicode="&#x2003;" horiz-adv-x="1823" />
<glyph unicode="&#x2004;" horiz-adv-x="607" />
<glyph unicode="&#x2005;" horiz-adv-x="455" />
<glyph unicode="&#x2006;" horiz-adv-x="303" />
<glyph unicode="&#x2007;" horiz-adv-x="303" />
<glyph unicode="&#x2008;" horiz-adv-x="227" />
<glyph unicode="&#x2009;" horiz-adv-x="364" />
<glyph unicode="&#x200a;" horiz-adv-x="101" />
<glyph unicode="&#x2010;" horiz-adv-x="802" d="M240 442l28 144h502l-29 -144h-501z" />
<glyph unicode="&#x2011;" horiz-adv-x="802" d="M240 442l28 144h502l-29 -144h-501z" />
<glyph unicode="&#x2012;" horiz-adv-x="802" d="M240 442l28 144h502l-29 -144h-501z" />
<glyph unicode="&#x2013;" horiz-adv-x="1024" d="M96 453l25 118h1024l-25 -118h-1024z" />
<glyph unicode="&#x2014;" horiz-adv-x="2048" d="M96 453l25 118h2048l-25 -118h-2048z" />
<glyph unicode="&#x2018;" horiz-adv-x="442" d="M338 1130q0 49 20.5 101.5t40 84.5t72.5 84t69.5 65.5t77.5 66.5l33 -35q-127 -123 -137 -221q-4 -39 21 -96q25 -59 24 -90q0 -29 -31.5 -60t-81.5 -31q-47 -2 -77.5 39t-30.5 92z" />
<glyph unicode="&#x2019;" horiz-adv-x="442" d="M301 1022q127 123 137 221q4 39 -20 96q-25 59 -25 91q0 29 32 59.5t79 30.5q49 2 79.5 -39t30.5 -92q0 -49 -20.5 -101.5t-39.5 -84.5t-72.5 -84t-70 -65.5t-77.5 -66.5z" />
<glyph unicode="&#x201a;" horiz-adv-x="442" d="M57 -188q127 123 138 221q4 39 -21 98q-25 57 -24 86q0 31 30 62q33 31 82 32q47 0 78 -41t31 -90q0 -51 -21 -102q-20 -53 -39 -86q-20 -31 -73 -82q-53 -53 -70 -66q-16 -14 -78 -67z" />
<glyph unicode="&#x201c;" horiz-adv-x="823" d="M346 1130q0 49 21 103q20 51 39 82q20 33 73 86q53 51 70 65q16 12 78 66l32 -35q-127 -123 -137 -221q-4 -39 21 -96q25 -59 24 -90q0 -29 -30 -60q-33 -31 -82 -31q-47 -2 -78 39t-31 92zM727 1130q0 49 21 103q20 51 38 82q20 33 74 86q53 51 70 65q16 12 78 66 l32 -35q-127 -123 -137 -221q-4 -39 21 -96q25 -59 24 -90q0 -29 -30 -60q-33 -31 -82 -31q-47 -2 -78 39t-31 92z" />
<glyph unicode="&#x201d;" horiz-adv-x="823" d="M291 1026q127 123 137 221q4 39 -20 96q-25 59 -25 91q0 29 31.5 59.5t81.5 30.5q47 2 77.5 -39t30.5 -92q0 -49 -20.5 -101.5t-40 -84t-72.5 -84t-69.5 -66t-77.5 -66.5zM672 1026q127 123 137 221q4 39 -21 96q-25 59 -24 91q0 29 31.5 59.5t81.5 30.5q47 2 77.5 -39 t30.5 -92q0 -49 -20.5 -101.5t-40 -84t-72.5 -84t-69.5 -66t-77.5 -66.5z" />
<glyph unicode="&#x201e;" horiz-adv-x="823" d="M57 -188q127 123 138 221q4 39 -21 98q-25 57 -24 86q0 31 30 62q33 31 82 32q47 0 78 -41t31 -90q0 -51 -21 -102q-20 -53 -39 -86q-20 -31 -73 -82q-53 -53 -70 -66q-16 -14 -78 -67zM438 -188q127 123 137 221q4 39 -20 98q-25 57 -25 86q0 31 31 62q33 31 82 32 q47 0 78 -41t31 -90q0 -51 -21 -102q-20 -53 -39 -86q-20 -31 -74 -82q-53 -53 -69 -66q-16 -14 -78 -67z" />
<glyph unicode="&#x2022;" horiz-adv-x="1024" d="M297 721q0 133 97.5 230.5t230.5 97.5t229 -97.5t96 -230.5q0 -135 -96 -231.5t-229 -96.5t-230.5 96.5t-97.5 231.5z" />
<glyph unicode="&#x2026;" horiz-adv-x="2048" d="M246 98.5q0 57.5 37 94.5q37 39 94 38q55 0 86 -34q33 -33 33 -88.5t-37 -94.5t-94 -39q-55 0 -86 33q-33 33 -33 90.5zM928 98.5q0 57.5 37 94.5q37 39 92 38q57 0 90 -34q31 -33 31 -88.5t-37 -94.5t-92 -39q-57 0 -91 33q-30 33 -30 90.5zM1610 98.5q0 57.5 37 94.5 q37 39 94 38q55 0 86 -34q33 -33 33 -88.5t-37 -94.5t-94 -39q-55 0 -87 33t-32 90.5z" />
<glyph unicode="&#x202f;" horiz-adv-x="364" />
<glyph unicode="&#x2039;" horiz-adv-x="567" d="M223 457q-23 33 8 63l347 371l40 -35l-208 -334q-20 -33 -9 -69l113 -338l-47 -31z" />
<glyph unicode="&#x203a;" horiz-adv-x="567" d="M162 119l209 334q20 33 8 69l-113 338l47 31l244 -373q23 -33 -8 -63l-346 -371z" />
<glyph unicode="&#x205f;" horiz-adv-x="455" />
<glyph unicode="&#x2122;" horiz-adv-x="2252" d="M258 1210v207h780v-207h-43q-16 96 -52 124t-144 28h-70v-668q0 -49 21.5 -61t119.5 -19v-47h-442v47q98 6 119.5 18.5t21.5 61.5v668h-65q-113 0 -150 -27.5t-53 -124.5h-43zM1110 567v47q61 4 87 16.5t32 61.5q4 47 4 137v461q0 47 -17.5 59.5t-97.5 20.5v47h312 q18 -45 149 -327l137 -291h4l138 293q119 254 149 325h305v-47q-80 -8 -97 -20.5t-17 -59.5v-596q0 -49 17 -61t97 -19v-47h-385v47q80 6 97.5 18.5t17.5 61.5v611h-8l-342 -715h-43l-340 715h-9v-476q0 -70 9 -151q4 -35 32.5 -46t110.5 -18v-47h-342z" />
<glyph unicode="&#xe000;" horiz-adv-x="1024" d="M0 0v1024h1024v-1024h-1024z" />
</font>
</defs>
</svg>
